<svg xmlns="http://www.w3.org/2000/svg" xmlns:xlink="http://www.w3.org/1999/xlink" width="500" zoomAndPan="magnify" viewBox="0 0 375 374.999991" height="500" preserveAspectRatio="xMidYMid meet" version="1.0"><defs><clipPath id="id1"><path d="M 249 178 L 337.5 178 L 337.5 256.125 L 249 256.125 Z M 249 178 " clip-rule="nonzero"/></clipPath><clipPath id="id2"><path d="M 37.5 118.875 L 269 118.875 L 269 256.125 L 37.5 256.125 Z M 37.5 118.875 " clip-rule="nonzero"/></clipPath></defs><g clip-path="url(#id1)"><path fill="#f4a83f" d="M 306.945312 224.070312 L 282.976562 225.492188 C 269.988281 226.117188 256.050781 236.710938 251.121094 249.699219 L 249.363281 254.226562 C 249.011719 255.125 249.625 256.023438 250.597656 256.023438 L 332.921875 256.023438 C 333.882812 256.023438 334.757812 255.402344 335.03125 254.429688 C 336.429688 249.261719 337.226562 243.835938 337.226562 238.234375 C 337.226562 205.328125 310.714844 178.453125 278.160156 178.453125 L 278.160156 178.390625 C 277.199219 178.390625 276.152344 178.390625 275.191406 178.527344 C 274.480469 178.527344 273.878906 179.066406 273.605469 179.765625 L 269.386719 194.613281 C 267.554688 201.023438 268.242188 206.890625 271.308594 211.257812 C 274.128906 215.25 278.871094 217.558594 284.5625 217.820312 L 307.570312 219.253906 C 308.265625 219.253906 308.878906 219.578125 309.226562 220.140625 C 309.578125 220.703125 309.664062 221.5 309.492188 222.113281 C 309.140625 223.171875 308.082031 223.984375 306.945312 224.070312 Z M 306.945312 224.070312 " fill-opacity="1" fill-rule="nonzero"/></g><g clip-path="url(#id2)"><path fill="#ed7e1f" d="M 37.773438 247.601562 C 37.773438 249.8125 37.949219 252.042969 38.210938 254.265625 C 38.382812 255.3125 39.257812 256.125 40.316406 256.125 L 239.730469 256.125 C 240.867188 256.125 241.925781 255.3125 242.261719 254.167969 L 243.761719 248.761719 L 243.761719 248.75 C 245.59375 242.335938 244.894531 236.472656 241.824219 232.117188 C 239.019531 228.125 234.277344 225.804688 228.574219 225.542969 L 120.535156 224.121094 C 120.523438 224.121094 120.507812 224.121094 120.507812 224.121094 C 119.824219 224.121094 119.222656 223.769531 118.875 223.222656 L 118.875 223.210938 C 118.527344 222.671875 118.4375 221.960938 118.613281 221.25 C 118.960938 220.191406 120.011719 219.378906 121.160156 219.28125 L 230.160156 217.855469 C 243.074219 217.234375 257.109375 206.640625 262.027344 193.652344 L 268.253906 177.195312 C 268.515625 176.484375 268.613281 175.757812 268.441406 175.074219 C 261.414062 142.894531 233.066406 118.875 199.191406 118.875 C 167.949219 118.875 141.445312 139.335938 131.964844 167.699219 C 125.8125 163.070312 118 160.574219 109.578125 161.386719 C 94.570312 162.894531 82.554688 175.085938 81.054688 190.292969 C 80.707031 194.210938 80.96875 198.042969 81.84375 201.597656 C 57.335938 202.308594 37.773438 222.597656 37.773438 247.601562 Z M 37.773438 247.601562 " fill-opacity="1" fill-rule="nonzero"/></g></svg>