<svg xmlns="http://www.w3.org/2000/svg" xmlns:xlink="http://www.w3.org/1999/xlink" width="500" zoomAndPan="magnify" viewBox="0 0 375 374.999991" height="500" preserveAspectRatio="xMidYMid meet" version="1.0"><defs><clipPath id="id1"><path d="M 81.136719 96 L 294.136719 96 L 294.136719 337.5 L 81.136719 337.5 Z M 81.136719 96 " clip-rule="nonzero"/></clipPath><clipPath id="id2"><path d="M 131 37.5 L 164 37.5 L 164 78 L 131 78 Z M 131 37.5 " clip-rule="nonzero"/></clipPath><clipPath id="id3"><path d="M 170 37.5 L 203 37.5 L 203 79 L 170 79 Z M 170 37.5 " clip-rule="nonzero"/></clipPath><clipPath id="id4"><path d="M 208 37.5 L 242 37.5 L 242 79 L 208 79 Z M 208 37.5 " clip-rule="nonzero"/></clipPath></defs><g clip-path="url(#id1)"><path fill="#214ce5" d="M 187.542969 337.492188 L 100.636719 313.398438 L 81.269531 96.457031 L 294.078125 96.457031 L 274.699219 313.363281 L 187.546875 337.488281 Z M 187.542969 337.492188 " fill-opacity="1" fill-rule="nonzero"/></g><path fill="#2465f1" d="M 258.101562 299.550781 L 274.667969 114.195312 L 187.679688 114.191406 L 187.679688 319.042969 Z M 258.101562 299.550781 " fill-opacity="1" fill-rule="nonzero"/><path fill="#ffffff" d="M 125.671875 194.65625 L 128.058594 221.257812 L 187.679688 221.257812 L 187.679688 194.65625 Z M 125.671875 194.65625 " fill-opacity="1" fill-rule="nonzero"/><path fill="#ffffff" d="M 120.871094 140.796875 L 123.292969 167.40625 L 187.679688 167.40625 L 187.679688 140.796875 Z M 120.871094 140.796875 " fill-opacity="1" fill-rule="nonzero"/><path fill="#ffffff" d="M 187.679688 263.753906 L 187.5625 263.789062 L 157.890625 255.78125 L 155.992188 234.5625 L 129.25 234.5625 L 132.980469 276.34375 L 187.554688 291.472656 L 187.679688 291.4375 Z M 187.679688 263.753906 " fill-opacity="1" fill-rule="nonzero"/><g clip-path="url(#id2)"><path fill="#6b7280" d="M 131.355469 37.5 L 163.625 37.5 L 163.625 50.976562 L 144.847656 50.976562 L 144.847656 64.453125 L 163.625 64.453125 L 163.625 77.929688 L 131.355469 77.929688 Z M 131.355469 37.5 " fill-opacity="1" fill-rule="nonzero"/></g><g clip-path="url(#id3)"><path fill="#6b7280" d="M 170.078125 37.5 L 202.34375 37.5 L 202.34375 49.21875 L 183.574219 49.21875 L 183.574219 51.5625 L 202.34375 51.5625 L 202.34375 78.515625 L 170.078125 78.515625 L 170.078125 66.210938 L 188.855469 66.210938 L 188.855469 63.867188 L 170.078125 63.867188 Z M 170.078125 37.5 " fill-opacity="1" fill-rule="nonzero"/></g><g clip-path="url(#id4)"><path fill="#6b7280" d="M 208.800781 37.5 L 241.066406 37.5 L 241.066406 49.21875 L 222.289062 49.21875 L 222.289062 51.5625 L 241.066406 51.5625 L 241.066406 78.515625 L 208.800781 78.515625 L 208.800781 66.210938 L 227.570312 66.210938 L 227.570312 63.867188 L 208.800781 63.867188 Z M 208.800781 37.5 " fill-opacity="1" fill-rule="nonzero"/></g><path fill="#ffffff" d="M 249.515625 194.65625 L 254.324219 140.796875 L 187.585938 140.796875 L 187.585938 167.40625 L 225.125 167.40625 L 222.707031 194.65625 L 187.585938 194.65625 L 187.585938 221.257812 L 220.394531 221.257812 L 217.300781 255.765625 L 187.585938 263.777344 L 187.585938 291.453125 L 242.203125 276.34375 L 242.601562 271.84375 L 248.867188 201.796875 Z M 249.515625 194.65625 " fill-opacity="1" fill-rule="nonzero"/></svg>