<svg xmlns="http://www.w3.org/2000/svg" xmlns:xlink="http://www.w3.org/1999/xlink" width="500" zoomAndPan="magnify" viewBox="0 0 375 374.999991" height="500" preserveAspectRatio="xMidYMid meet" version="1.0"><defs><clipPath id="5dc0327730"><path d="M 75 103.226562 L 336 103.226562 L 336 271.976562 L 75 271.976562 Z M 75 103.226562 " clip-rule="nonzero"/></clipPath><clipPath id="98f4e456d2"><path d="M 183 107 L 207 107 L 207 131 L 183 131 Z M 183 107 " clip-rule="nonzero"/></clipPath><clipPath id="973f6701ac"><path d="M 127.632812 105.835938 L 127.632812 159.347656 L 102.074219 159.347656 L 102.074219 186.101562 L 80.671875 186.101562 L 80.433594 188.425781 C 79.097656 203.003906 81.636719 216.449219 87.476562 227.945312 L 89.4375 231.46875 C 90.601562 233.582031 91.992188 235.566406 93.433594 237.503906 C 94.871094 239.441406 95.390625 240.507812 96.300781 241.792969 C 111.738281 259.148438 134.753906 267.527344 161.324219 267.527344 C 220.167969 267.527344 270.109375 241.425781 292.21875 182.789062 C 307.890625 184.398438 322.9375 180.375 329.789062 166.976562 C 318.871094 160.667969 304.835938 162.6875 296.75 166.757812 L 318.175781 105.832031 L 234.523438 159.339844 L 207.800781 159.339844 L 207.800781 105.832031 Z M 127.632812 105.835938 " clip-rule="nonzero"/></clipPath><clipPath id="6a6d0c0330"><path d="M 186 109 L 204 109 L 204 130 L 186 130 Z M 186 109 " clip-rule="nonzero"/></clipPath><clipPath id="d3ea2ece86"><path d="M 127.632812 105.835938 L 127.632812 159.347656 L 102.074219 159.347656 L 102.074219 186.101562 L 80.671875 186.101562 L 80.433594 188.425781 C 79.097656 203.003906 81.636719 216.449219 87.476562 227.945312 L 89.4375 231.46875 C 90.601562 233.582031 91.992188 235.566406 93.433594 237.503906 C 94.871094 239.441406 95.390625 240.507812 96.300781 241.792969 C 111.738281 259.148438 134.753906 267.527344 161.324219 267.527344 C 220.167969 267.527344 270.109375 241.425781 292.21875 182.789062 C 307.890625 184.398438 322.9375 180.375 329.789062 166.976562 C 318.871094 160.667969 304.835938 162.6875 296.75 166.757812 L 318.175781 105.832031 L 234.523438 159.339844 L 207.800781 159.339844 L 207.800781 105.832031 Z M 127.632812 105.835938 " clip-rule="nonzero"/></clipPath><clipPath id="780fc89dcc"><path d="M 185 108 L 205 108 L 205 130 L 185 130 Z M 185 108 " clip-rule="nonzero"/></clipPath><clipPath id="23cacd8e33"><path d="M 127.632812 105.835938 L 127.632812 159.347656 L 102.074219 159.347656 L 102.074219 186.101562 L 80.671875 186.101562 L 80.433594 188.425781 C 79.097656 203.003906 81.636719 216.449219 87.476562 227.945312 L 89.4375 231.46875 C 90.601562 233.582031 91.992188 235.566406 93.433594 237.503906 C 94.871094 239.441406 95.390625 240.507812 96.300781 241.792969 C 111.738281 259.148438 134.753906 267.527344 161.324219 267.527344 C 220.167969 267.527344 270.109375 241.425781 292.21875 182.789062 C 307.890625 184.398438 322.9375 180.375 329.789062 166.976562 C 318.871094 160.667969 304.835938 162.6875 296.75 166.757812 L 318.175781 105.832031 L 234.523438 159.339844 L 207.800781 159.339844 L 207.800781 105.832031 Z M 127.632812 105.835938 " clip-rule="nonzero"/></clipPath><clipPath id="3921b97967"><path d="M 209 107 L 233 107 L 233 132 L 209 132 Z M 209 107 " clip-rule="nonzero"/></clipPath><clipPath id="6455daa353"><path d="M 127.632812 105.835938 L 127.632812 159.347656 L 102.074219 159.347656 L 102.074219 186.101562 L 80.671875 186.101562 L 80.433594 188.425781 C 79.097656 203.003906 81.636719 216.449219 87.476562 227.945312 L 89.4375 231.46875 C 90.601562 233.582031 91.992188 235.566406 93.433594 237.503906 C 94.871094 239.441406 95.390625 240.507812 96.300781 241.792969 C 111.738281 259.148438 134.753906 267.527344 161.324219 267.527344 C 220.167969 267.527344 270.109375 241.425781 292.21875 182.789062 C 307.890625 184.398438 322.9375 180.375 329.789062 166.976562 C 318.871094 160.667969 304.835938 162.6875 296.75 166.757812 L 318.175781 105.832031 L 234.523438 159.339844 L 207.800781 159.339844 L 207.800781 105.832031 Z M 127.632812 105.835938 " clip-rule="nonzero"/></clipPath><clipPath id="fb5f750756"><path d="M 212 109 L 230 109 L 230 130 L 212 130 Z M 212 109 " clip-rule="nonzero"/></clipPath><clipPath id="b529d3a76a"><path d="M 127.632812 105.835938 L 127.632812 159.347656 L 102.074219 159.347656 L 102.074219 186.101562 L 80.671875 186.101562 L 80.433594 188.425781 C 79.097656 203.003906 81.636719 216.449219 87.476562 227.945312 L 89.4375 231.46875 C 90.601562 233.582031 91.992188 235.566406 93.433594 237.503906 C 94.871094 239.441406 95.390625 240.507812 96.300781 241.792969 C 111.738281 259.148438 134.753906 267.527344 161.324219 267.527344 C 220.167969 267.527344 270.109375 241.425781 292.21875 182.789062 C 307.890625 184.398438 322.9375 180.375 329.789062 166.976562 C 318.871094 160.667969 304.835938 162.6875 296.75 166.757812 L 318.175781 105.832031 L 234.523438 159.339844 L 207.800781 159.339844 L 207.800781 105.832031 Z M 127.632812 105.835938 " clip-rule="nonzero"/></clipPath><clipPath id="a8b9494237"><path d="M 211 108 L 231 108 L 231 130 L 211 130 Z M 211 108 " clip-rule="nonzero"/></clipPath><clipPath id="a831874238"><path d="M 127.632812 105.835938 L 127.632812 159.347656 L 102.074219 159.347656 L 102.074219 186.101562 L 80.671875 186.101562 L 80.433594 188.425781 C 79.097656 203.003906 81.636719 216.449219 87.476562 227.945312 L 89.4375 231.46875 C 90.601562 233.582031 91.992188 235.566406 93.433594 237.503906 C 94.871094 239.441406 95.390625 240.507812 96.300781 241.792969 C 111.738281 259.148438 134.753906 267.527344 161.324219 267.527344 C 220.167969 267.527344 270.109375 241.425781 292.21875 182.789062 C 307.890625 184.398438 322.9375 180.375 329.789062 166.976562 C 318.871094 160.667969 304.835938 162.6875 296.75 166.757812 L 318.175781 105.832031 L 234.523438 159.339844 L 207.800781 159.339844 L 207.800781 105.832031 Z M 127.632812 105.835938 " clip-rule="nonzero"/></clipPath><clipPath id="69ee0633e0"><path d="M 80 134 L 100 134 L 100 158 L 80 158 Z M 80 134 " clip-rule="nonzero"/></clipPath><clipPath id="f18b748c68"><path d="M 127.632812 105.835938 L 127.632812 159.347656 L 102.074219 159.347656 L 102.074219 186.101562 L 80.671875 186.101562 L 80.433594 188.425781 C 79.097656 203.003906 81.636719 216.449219 87.476562 227.945312 L 89.4375 231.46875 C 90.601562 233.582031 91.992188 235.566406 93.433594 237.503906 C 94.871094 239.441406 95.390625 240.507812 96.300781 241.792969 C 111.738281 259.148438 134.753906 267.527344 161.324219 267.527344 C 220.167969 267.527344 270.109375 241.425781 292.21875 182.789062 C 307.890625 184.398438 322.9375 180.375 329.789062 166.976562 C 318.871094 160.667969 304.835938 162.6875 296.75 166.757812 L 318.175781 105.832031 L 234.523438 159.339844 L 207.800781 159.339844 L 207.800781 105.832031 Z M 127.632812 105.835938 " clip-rule="nonzero"/></clipPath><clipPath id="8174f962a3"><path d="M 80 161 L 100 161 L 100 185 L 80 185 Z M 80 161 " clip-rule="nonzero"/></clipPath><clipPath id="21f63aabc1"><path d="M 127.632812 105.835938 L 127.632812 159.347656 L 102.074219 159.347656 L 102.074219 186.101562 L 80.671875 186.101562 L 80.433594 188.425781 C 79.097656 203.003906 81.636719 216.449219 87.476562 227.945312 L 89.4375 231.46875 C 90.601562 233.582031 91.992188 235.566406 93.433594 237.503906 C 94.871094 239.441406 95.390625 240.507812 96.300781 241.792969 C 111.738281 259.148438 134.753906 267.527344 161.324219 267.527344 C 220.167969 267.527344 270.109375 241.425781 292.21875 182.789062 C 307.890625 184.398438 322.9375 180.375 329.789062 166.976562 C 318.871094 160.667969 304.835938 162.6875 296.75 166.757812 L 318.175781 105.832031 L 234.523438 159.339844 L 207.800781 159.339844 L 207.800781 105.832031 Z M 127.632812 105.835938 " clip-rule="nonzero"/></clipPath><clipPath id="9da9494d14"><path d="M 80 136 L 98 136 L 98 156 L 80 156 Z M 80 136 " clip-rule="nonzero"/></clipPath><clipPath id="1831baad9b"><path d="M 127.632812 105.835938 L 127.632812 159.347656 L 102.074219 159.347656 L 102.074219 186.101562 L 80.671875 186.101562 L 80.433594 188.425781 C 79.097656 203.003906 81.636719 216.449219 87.476562 227.945312 L 89.4375 231.46875 C 90.601562 233.582031 91.992188 235.566406 93.433594 237.503906 C 94.871094 239.441406 95.390625 240.507812 96.300781 241.792969 C 111.738281 259.148438 134.753906 267.527344 161.324219 267.527344 C 220.167969 267.527344 270.109375 241.425781 292.21875 182.789062 C 307.890625 184.398438 322.9375 180.375 329.789062 166.976562 C 318.871094 160.667969 304.835938 162.6875 296.75 166.757812 L 318.175781 105.832031 L 234.523438 159.339844 L 207.800781 159.339844 L 207.800781 105.832031 Z M 127.632812 105.835938 " clip-rule="nonzero"/></clipPath><clipPath id="a52a627205"><path d="M 80 135 L 99 135 L 99 157 L 80 157 Z M 80 135 " clip-rule="nonzero"/></clipPath><clipPath id="15755e62ad"><path d="M 127.632812 105.835938 L 127.632812 159.347656 L 102.074219 159.347656 L 102.074219 186.101562 L 80.671875 186.101562 L 80.433594 188.425781 C 79.097656 203.003906 81.636719 216.449219 87.476562 227.945312 L 89.4375 231.46875 C 90.601562 233.582031 91.992188 235.566406 93.433594 237.503906 C 94.871094 239.441406 95.390625 240.507812 96.300781 241.792969 C 111.738281 259.148438 134.753906 267.527344 161.324219 267.527344 C 220.167969 267.527344 270.109375 241.425781 292.21875 182.789062 C 307.890625 184.398438 322.9375 180.375 329.789062 166.976562 C 318.871094 160.667969 304.835938 162.6875 296.75 166.757812 L 318.175781 105.832031 L 234.523438 159.339844 L 207.800781 159.339844 L 207.800781 105.832031 Z M 127.632812 105.835938 " clip-rule="nonzero"/></clipPath><clipPath id="24948b1724"><path d="M 80 163 L 98 163 L 98 183 L 80 183 Z M 80 163 " clip-rule="nonzero"/></clipPath><clipPath id="3a715a516a"><path d="M 127.632812 105.835938 L 127.632812 159.347656 L 102.074219 159.347656 L 102.074219 186.101562 L 80.671875 186.101562 L 80.433594 188.425781 C 79.097656 203.003906 81.636719 216.449219 87.476562 227.945312 L 89.4375 231.46875 C 90.601562 233.582031 91.992188 235.566406 93.433594 237.503906 C 94.871094 239.441406 95.390625 240.507812 96.300781 241.792969 C 111.738281 259.148438 134.753906 267.527344 161.324219 267.527344 C 220.167969 267.527344 270.109375 241.425781 292.21875 182.789062 C 307.890625 184.398438 322.9375 180.375 329.789062 166.976562 C 318.871094 160.667969 304.835938 162.6875 296.75 166.757812 L 318.175781 105.832031 L 234.523438 159.339844 L 207.800781 159.339844 L 207.800781 105.832031 Z M 127.632812 105.835938 " clip-rule="nonzero"/></clipPath><clipPath id="162806a02a"><path d="M 80 162 L 99 162 L 99 184 L 80 184 Z M 80 162 " clip-rule="nonzero"/></clipPath><clipPath id="2e38c00dd0"><path d="M 127.632812 105.835938 L 127.632812 159.347656 L 102.074219 159.347656 L 102.074219 186.101562 L 80.671875 186.101562 L 80.433594 188.425781 C 79.097656 203.003906 81.636719 216.449219 87.476562 227.945312 L 89.4375 231.46875 C 90.601562 233.582031 91.992188 235.566406 93.433594 237.503906 C 94.871094 239.441406 95.390625 240.507812 96.300781 241.792969 C 111.738281 259.148438 134.753906 267.527344 161.324219 267.527344 C 220.167969 267.527344 270.109375 241.425781 292.21875 182.789062 C 307.890625 184.398438 322.9375 180.375 329.789062 166.976562 C 318.871094 160.667969 304.835938 162.6875 296.75 166.757812 L 318.175781 105.832031 L 234.523438 159.339844 L 207.800781 159.339844 L 207.800781 105.832031 Z M 127.632812 105.835938 " clip-rule="nonzero"/></clipPath><clipPath id="670a2da60a"><path d="M 103 161 L 127 161 L 127 185 L 103 185 Z M 103 161 " clip-rule="nonzero"/></clipPath><clipPath id="c527ef3563"><path d="M 127.632812 105.835938 L 127.632812 159.347656 L 102.074219 159.347656 L 102.074219 186.101562 L 80.671875 186.101562 L 80.433594 188.425781 C 79.097656 203.003906 81.636719 216.449219 87.476562 227.945312 L 89.4375 231.46875 C 90.601562 233.582031 91.992188 235.566406 93.433594 237.503906 C 94.871094 239.441406 95.390625 240.507812 96.300781 241.792969 C 111.738281 259.148438 134.753906 267.527344 161.324219 267.527344 C 220.167969 267.527344 270.109375 241.425781 292.21875 182.789062 C 307.890625 184.398438 322.9375 180.375 329.789062 166.976562 C 318.871094 160.667969 304.835938 162.6875 296.75 166.757812 L 318.175781 105.832031 L 234.523438 159.339844 L 207.800781 159.339844 L 207.800781 105.832031 Z M 127.632812 105.835938 " clip-rule="nonzero"/></clipPath><clipPath id="a72cf3b78c"><path d="M 103 134 L 127 134 L 127 158 L 103 158 Z M 103 134 " clip-rule="nonzero"/></clipPath><clipPath id="c045f0fb7f"><path d="M 127.632812 105.835938 L 127.632812 159.347656 L 102.074219 159.347656 L 102.074219 186.101562 L 80.671875 186.101562 L 80.433594 188.425781 C 79.097656 203.003906 81.636719 216.449219 87.476562 227.945312 L 89.4375 231.46875 C 90.601562 233.582031 91.992188 235.566406 93.433594 237.503906 C 94.871094 239.441406 95.390625 240.507812 96.300781 241.792969 C 111.738281 259.148438 134.753906 267.527344 161.324219 267.527344 C 220.167969 267.527344 270.109375 241.425781 292.21875 182.789062 C 307.890625 184.398438 322.9375 180.375 329.789062 166.976562 C 318.871094 160.667969 304.835938 162.6875 296.75 166.757812 L 318.175781 105.832031 L 234.523438 159.339844 L 207.800781 159.339844 L 207.800781 105.832031 Z M 127.632812 105.835938 " clip-rule="nonzero"/></clipPath><clipPath id="6179610155"><path d="M 106 163 L 124 163 L 124 183 L 106 183 Z M 106 163 " clip-rule="nonzero"/></clipPath><clipPath id="50b58c7c0f"><path d="M 127.632812 105.835938 L 127.632812 159.347656 L 102.074219 159.347656 L 102.074219 186.101562 L 80.671875 186.101562 L 80.433594 188.425781 C 79.097656 203.003906 81.636719 216.449219 87.476562 227.945312 L 89.4375 231.46875 C 90.601562 233.582031 91.992188 235.566406 93.433594 237.503906 C 94.871094 239.441406 95.390625 240.507812 96.300781 241.792969 C 111.738281 259.148438 134.753906 267.527344 161.324219 267.527344 C 220.167969 267.527344 270.109375 241.425781 292.21875 182.789062 C 307.890625 184.398438 322.9375 180.375 329.789062 166.976562 C 318.871094 160.667969 304.835938 162.6875 296.75 166.757812 L 318.175781 105.832031 L 234.523438 159.339844 L 207.800781 159.339844 L 207.800781 105.832031 Z M 127.632812 105.835938 " clip-rule="nonzero"/></clipPath><clipPath id="f9499f9f1a"><path d="M 105 162 L 125 162 L 125 184 L 105 184 Z M 105 162 " clip-rule="nonzero"/></clipPath><clipPath id="2c46f496f5"><path d="M 127.632812 105.835938 L 127.632812 159.347656 L 102.074219 159.347656 L 102.074219 186.101562 L 80.671875 186.101562 L 80.433594 188.425781 C 79.097656 203.003906 81.636719 216.449219 87.476562 227.945312 L 89.4375 231.46875 C 90.601562 233.582031 91.992188 235.566406 93.433594 237.503906 C 94.871094 239.441406 95.390625 240.507812 96.300781 241.792969 C 111.738281 259.148438 134.753906 267.527344 161.324219 267.527344 C 220.167969 267.527344 270.109375 241.425781 292.21875 182.789062 C 307.890625 184.398438 322.9375 180.375 329.789062 166.976562 C 318.871094 160.667969 304.835938 162.6875 296.75 166.757812 L 318.175781 105.832031 L 234.523438 159.339844 L 207.800781 159.339844 L 207.800781 105.832031 Z M 127.632812 105.835938 " clip-rule="nonzero"/></clipPath><clipPath id="bba910da6a"><path d="M 106 136 L 124 136 L 124 156 L 106 156 Z M 106 136 " clip-rule="nonzero"/></clipPath><clipPath id="e468867bc9"><path d="M 127.632812 105.835938 L 127.632812 159.347656 L 102.074219 159.347656 L 102.074219 186.101562 L 80.671875 186.101562 L 80.433594 188.425781 C 79.097656 203.003906 81.636719 216.449219 87.476562 227.945312 L 89.4375 231.46875 C 90.601562 233.582031 91.992188 235.566406 93.433594 237.503906 C 94.871094 239.441406 95.390625 240.507812 96.300781 241.792969 C 111.738281 259.148438 134.753906 267.527344 161.324219 267.527344 C 220.167969 267.527344 270.109375 241.425781 292.21875 182.789062 C 307.890625 184.398438 322.9375 180.375 329.789062 166.976562 C 318.871094 160.667969 304.835938 162.6875 296.75 166.757812 L 318.175781 105.832031 L 234.523438 159.339844 L 207.800781 159.339844 L 207.800781 105.832031 Z M 127.632812 105.835938 " clip-rule="nonzero"/></clipPath><clipPath id="4e4e25c718"><path d="M 105 135 L 125 135 L 125 157 L 105 157 Z M 105 135 " clip-rule="nonzero"/></clipPath><clipPath id="fb2c1686fe"><path d="M 127.632812 105.835938 L 127.632812 159.347656 L 102.074219 159.347656 L 102.074219 186.101562 L 80.671875 186.101562 L 80.433594 188.425781 C 79.097656 203.003906 81.636719 216.449219 87.476562 227.945312 L 89.4375 231.46875 C 90.601562 233.582031 91.992188 235.566406 93.433594 237.503906 C 94.871094 239.441406 95.390625 240.507812 96.300781 241.792969 C 111.738281 259.148438 134.753906 267.527344 161.324219 267.527344 C 220.167969 267.527344 270.109375 241.425781 292.21875 182.789062 C 307.890625 184.398438 322.9375 180.375 329.789062 166.976562 C 318.871094 160.667969 304.835938 162.6875 296.75 166.757812 L 318.175781 105.832031 L 234.523438 159.339844 L 207.800781 159.339844 L 207.800781 105.832031 Z M 127.632812 105.835938 " clip-rule="nonzero"/></clipPath><clipPath id="1dc81a1ddf"><path d="M 130 134 L 154 134 L 154 158 L 130 158 Z M 130 134 " clip-rule="nonzero"/></clipPath><clipPath id="8f17079d8b"><path d="M 127.632812 105.835938 L 127.632812 159.347656 L 102.074219 159.347656 L 102.074219 186.101562 L 80.671875 186.101562 L 80.433594 188.425781 C 79.097656 203.003906 81.636719 216.449219 87.476562 227.945312 L 89.4375 231.46875 C 90.601562 233.582031 91.992188 235.566406 93.433594 237.503906 C 94.871094 239.441406 95.390625 240.507812 96.300781 241.792969 C 111.738281 259.148438 134.753906 267.527344 161.324219 267.527344 C 220.167969 267.527344 270.109375 241.425781 292.21875 182.789062 C 307.890625 184.398438 322.9375 180.375 329.789062 166.976562 C 318.871094 160.667969 304.835938 162.6875 296.75 166.757812 L 318.175781 105.832031 L 234.523438 159.339844 L 207.800781 159.339844 L 207.800781 105.832031 Z M 127.632812 105.835938 " clip-rule="nonzero"/></clipPath><clipPath id="04e78dcf35"><path d="M 130 161 L 154 161 L 154 185 L 130 185 Z M 130 161 " clip-rule="nonzero"/></clipPath><clipPath id="814f2f248c"><path d="M 127.632812 105.835938 L 127.632812 159.347656 L 102.074219 159.347656 L 102.074219 186.101562 L 80.671875 186.101562 L 80.433594 188.425781 C 79.097656 203.003906 81.636719 216.449219 87.476562 227.945312 L 89.4375 231.46875 C 90.601562 233.582031 91.992188 235.566406 93.433594 237.503906 C 94.871094 239.441406 95.390625 240.507812 96.300781 241.792969 C 111.738281 259.148438 134.753906 267.527344 161.324219 267.527344 C 220.167969 267.527344 270.109375 241.425781 292.21875 182.789062 C 307.890625 184.398438 322.9375 180.375 329.789062 166.976562 C 318.871094 160.667969 304.835938 162.6875 296.75 166.757812 L 318.175781 105.832031 L 234.523438 159.339844 L 207.800781 159.339844 L 207.800781 105.832031 Z M 127.632812 105.835938 " clip-rule="nonzero"/></clipPath><clipPath id="3919e2887d"><path d="M 132 136 L 151 136 L 151 156 L 132 156 Z M 132 136 " clip-rule="nonzero"/></clipPath><clipPath id="16d9e6f1b4"><path d="M 127.632812 105.835938 L 127.632812 159.347656 L 102.074219 159.347656 L 102.074219 186.101562 L 80.671875 186.101562 L 80.433594 188.425781 C 79.097656 203.003906 81.636719 216.449219 87.476562 227.945312 L 89.4375 231.46875 C 90.601562 233.582031 91.992188 235.566406 93.433594 237.503906 C 94.871094 239.441406 95.390625 240.507812 96.300781 241.792969 C 111.738281 259.148438 134.753906 267.527344 161.324219 267.527344 C 220.167969 267.527344 270.109375 241.425781 292.21875 182.789062 C 307.890625 184.398438 322.9375 180.375 329.789062 166.976562 C 318.871094 160.667969 304.835938 162.6875 296.75 166.757812 L 318.175781 105.832031 L 234.523438 159.339844 L 207.800781 159.339844 L 207.800781 105.832031 Z M 127.632812 105.835938 " clip-rule="nonzero"/></clipPath><clipPath id="81193fa19b"><path d="M 132 135 L 152 135 L 152 157 L 132 157 Z M 132 135 " clip-rule="nonzero"/></clipPath><clipPath id="bd11eba7ec"><path d="M 127.632812 105.835938 L 127.632812 159.347656 L 102.074219 159.347656 L 102.074219 186.101562 L 80.671875 186.101562 L 80.433594 188.425781 C 79.097656 203.003906 81.636719 216.449219 87.476562 227.945312 L 89.4375 231.46875 C 90.601562 233.582031 91.992188 235.566406 93.433594 237.503906 C 94.871094 239.441406 95.390625 240.507812 96.300781 241.792969 C 111.738281 259.148438 134.753906 267.527344 161.324219 267.527344 C 220.167969 267.527344 270.109375 241.425781 292.21875 182.789062 C 307.890625 184.398438 322.9375 180.375 329.789062 166.976562 C 318.871094 160.667969 304.835938 162.6875 296.75 166.757812 L 318.175781 105.832031 L 234.523438 159.339844 L 207.800781 159.339844 L 207.800781 105.832031 Z M 127.632812 105.835938 " clip-rule="nonzero"/></clipPath><clipPath id="0998f1c07e"><path d="M 132 163 L 151 163 L 151 183 L 132 183 Z M 132 163 " clip-rule="nonzero"/></clipPath><clipPath id="3eb8c5d505"><path d="M 127.632812 105.835938 L 127.632812 159.347656 L 102.074219 159.347656 L 102.074219 186.101562 L 80.671875 186.101562 L 80.433594 188.425781 C 79.097656 203.003906 81.636719 216.449219 87.476562 227.945312 L 89.4375 231.46875 C 90.601562 233.582031 91.992188 235.566406 93.433594 237.503906 C 94.871094 239.441406 95.390625 240.507812 96.300781 241.792969 C 111.738281 259.148438 134.753906 267.527344 161.324219 267.527344 C 220.167969 267.527344 270.109375 241.425781 292.21875 182.789062 C 307.890625 184.398438 322.9375 180.375 329.789062 166.976562 C 318.871094 160.667969 304.835938 162.6875 296.75 166.757812 L 318.175781 105.832031 L 234.523438 159.339844 L 207.800781 159.339844 L 207.800781 105.832031 Z M 127.632812 105.835938 " clip-rule="nonzero"/></clipPath><clipPath id="bbd8cbc131"><path d="M 132 162 L 152 162 L 152 184 L 132 184 Z M 132 162 " clip-rule="nonzero"/></clipPath><clipPath id="749ccd37ba"><path d="M 127.632812 105.835938 L 127.632812 159.347656 L 102.074219 159.347656 L 102.074219 186.101562 L 80.671875 186.101562 L 80.433594 188.425781 C 79.097656 203.003906 81.636719 216.449219 87.476562 227.945312 L 89.4375 231.46875 C 90.601562 233.582031 91.992188 235.566406 93.433594 237.503906 C 94.871094 239.441406 95.390625 240.507812 96.300781 241.792969 C 111.738281 259.148438 134.753906 267.527344 161.324219 267.527344 C 220.167969 267.527344 270.109375 241.425781 292.21875 182.789062 C 307.890625 184.398438 322.9375 180.375 329.789062 166.976562 C 318.871094 160.667969 304.835938 162.6875 296.75 166.757812 L 318.175781 105.832031 L 234.523438 159.339844 L 207.800781 159.339844 L 207.800781 105.832031 Z M 127.632812 105.835938 " clip-rule="nonzero"/></clipPath><clipPath id="6423f2d821"><path d="M 156 161 L 180 161 L 180 185 L 156 185 Z M 156 161 " clip-rule="nonzero"/></clipPath><clipPath id="aae3b912a6"><path d="M 127.632812 105.835938 L 127.632812 159.347656 L 102.074219 159.347656 L 102.074219 186.101562 L 80.671875 186.101562 L 80.433594 188.425781 C 79.097656 203.003906 81.636719 216.449219 87.476562 227.945312 L 89.4375 231.46875 C 90.601562 233.582031 91.992188 235.566406 93.433594 237.503906 C 94.871094 239.441406 95.390625 240.507812 96.300781 241.792969 C 111.738281 259.148438 134.753906 267.527344 161.324219 267.527344 C 220.167969 267.527344 270.109375 241.425781 292.21875 182.789062 C 307.890625 184.398438 322.9375 180.375 329.789062 166.976562 C 318.871094 160.667969 304.835938 162.6875 296.75 166.757812 L 318.175781 105.832031 L 234.523438 159.339844 L 207.800781 159.339844 L 207.800781 105.832031 Z M 127.632812 105.835938 " clip-rule="nonzero"/></clipPath><clipPath id="bc66effeee"><path d="M 156 134 L 180 134 L 180 158 L 156 158 Z M 156 134 " clip-rule="nonzero"/></clipPath><clipPath id="e0083c13f0"><path d="M 127.632812 105.835938 L 127.632812 159.347656 L 102.074219 159.347656 L 102.074219 186.101562 L 80.671875 186.101562 L 80.433594 188.425781 C 79.097656 203.003906 81.636719 216.449219 87.476562 227.945312 L 89.4375 231.46875 C 90.601562 233.582031 91.992188 235.566406 93.433594 237.503906 C 94.871094 239.441406 95.390625 240.507812 96.300781 241.792969 C 111.738281 259.148438 134.753906 267.527344 161.324219 267.527344 C 220.167969 267.527344 270.109375 241.425781 292.21875 182.789062 C 307.890625 184.398438 322.9375 180.375 329.789062 166.976562 C 318.871094 160.667969 304.835938 162.6875 296.75 166.757812 L 318.175781 105.832031 L 234.523438 159.339844 L 207.800781 159.339844 L 207.800781 105.832031 Z M 127.632812 105.835938 " clip-rule="nonzero"/></clipPath><clipPath id="332870abd1"><path d="M 159 163 L 177 163 L 177 183 L 159 183 Z M 159 163 " clip-rule="nonzero"/></clipPath><clipPath id="c4b52157a7"><path d="M 127.632812 105.835938 L 127.632812 159.347656 L 102.074219 159.347656 L 102.074219 186.101562 L 80.671875 186.101562 L 80.433594 188.425781 C 79.097656 203.003906 81.636719 216.449219 87.476562 227.945312 L 89.4375 231.46875 C 90.601562 233.582031 91.992188 235.566406 93.433594 237.503906 C 94.871094 239.441406 95.390625 240.507812 96.300781 241.792969 C 111.738281 259.148438 134.753906 267.527344 161.324219 267.527344 C 220.167969 267.527344 270.109375 241.425781 292.21875 182.789062 C 307.890625 184.398438 322.9375 180.375 329.789062 166.976562 C 318.871094 160.667969 304.835938 162.6875 296.75 166.757812 L 318.175781 105.832031 L 234.523438 159.339844 L 207.800781 159.339844 L 207.800781 105.832031 Z M 127.632812 105.835938 " clip-rule="nonzero"/></clipPath><clipPath id="e2d7dcb663"><path d="M 158 162 L 178 162 L 178 184 L 158 184 Z M 158 162 " clip-rule="nonzero"/></clipPath><clipPath id="8738669c5f"><path d="M 127.632812 105.835938 L 127.632812 159.347656 L 102.074219 159.347656 L 102.074219 186.101562 L 80.671875 186.101562 L 80.433594 188.425781 C 79.097656 203.003906 81.636719 216.449219 87.476562 227.945312 L 89.4375 231.46875 C 90.601562 233.582031 91.992188 235.566406 93.433594 237.503906 C 94.871094 239.441406 95.390625 240.507812 96.300781 241.792969 C 111.738281 259.148438 134.753906 267.527344 161.324219 267.527344 C 220.167969 267.527344 270.109375 241.425781 292.21875 182.789062 C 307.890625 184.398438 322.9375 180.375 329.789062 166.976562 C 318.871094 160.667969 304.835938 162.6875 296.75 166.757812 L 318.175781 105.832031 L 234.523438 159.339844 L 207.800781 159.339844 L 207.800781 105.832031 Z M 127.632812 105.835938 " clip-rule="nonzero"/></clipPath><clipPath id="6ea767b16f"><path d="M 159 136 L 177 136 L 177 156 L 159 156 Z M 159 136 " clip-rule="nonzero"/></clipPath><clipPath id="005ba6617c"><path d="M 127.632812 105.835938 L 127.632812 159.347656 L 102.074219 159.347656 L 102.074219 186.101562 L 80.671875 186.101562 L 80.433594 188.425781 C 79.097656 203.003906 81.636719 216.449219 87.476562 227.945312 L 89.4375 231.46875 C 90.601562 233.582031 91.992188 235.566406 93.433594 237.503906 C 94.871094 239.441406 95.390625 240.507812 96.300781 241.792969 C 111.738281 259.148438 134.753906 267.527344 161.324219 267.527344 C 220.167969 267.527344 270.109375 241.425781 292.21875 182.789062 C 307.890625 184.398438 322.9375 180.375 329.789062 166.976562 C 318.871094 160.667969 304.835938 162.6875 296.75 166.757812 L 318.175781 105.832031 L 234.523438 159.339844 L 207.800781 159.339844 L 207.800781 105.832031 Z M 127.632812 105.835938 " clip-rule="nonzero"/></clipPath><clipPath id="38be76c96e"><path d="M 158 135 L 178 135 L 178 157 L 158 157 Z M 158 135 " clip-rule="nonzero"/></clipPath><clipPath id="8525549c5f"><path d="M 127.632812 105.835938 L 127.632812 159.347656 L 102.074219 159.347656 L 102.074219 186.101562 L 80.671875 186.101562 L 80.433594 188.425781 C 79.097656 203.003906 81.636719 216.449219 87.476562 227.945312 L 89.4375 231.46875 C 90.601562 233.582031 91.992188 235.566406 93.433594 237.503906 C 94.871094 239.441406 95.390625 240.507812 96.300781 241.792969 C 111.738281 259.148438 134.753906 267.527344 161.324219 267.527344 C 220.167969 267.527344 270.109375 241.425781 292.21875 182.789062 C 307.890625 184.398438 322.9375 180.375 329.789062 166.976562 C 318.871094 160.667969 304.835938 162.6875 296.75 166.757812 L 318.175781 105.832031 L 234.523438 159.339844 L 207.800781 159.339844 L 207.800781 105.832031 Z M 127.632812 105.835938 " clip-rule="nonzero"/></clipPath><clipPath id="8a339229cc"><path d="M 183 134 L 207 134 L 207 158 L 183 158 Z M 183 134 " clip-rule="nonzero"/></clipPath><clipPath id="27e530cc63"><path d="M 127.632812 105.835938 L 127.632812 159.347656 L 102.074219 159.347656 L 102.074219 186.101562 L 80.671875 186.101562 L 80.433594 188.425781 C 79.097656 203.003906 81.636719 216.449219 87.476562 227.945312 L 89.4375 231.46875 C 90.601562 233.582031 91.992188 235.566406 93.433594 237.503906 C 94.871094 239.441406 95.390625 240.507812 96.300781 241.792969 C 111.738281 259.148438 134.753906 267.527344 161.324219 267.527344 C 220.167969 267.527344 270.109375 241.425781 292.21875 182.789062 C 307.890625 184.398438 322.9375 180.375 329.789062 166.976562 C 318.871094 160.667969 304.835938 162.6875 296.75 166.757812 L 318.175781 105.832031 L 234.523438 159.339844 L 207.800781 159.339844 L 207.800781 105.832031 Z M 127.632812 105.835938 " clip-rule="nonzero"/></clipPath><clipPath id="c86395a8fb"><path d="M 183 161 L 207 161 L 207 185 L 183 185 Z M 183 161 " clip-rule="nonzero"/></clipPath><clipPath id="d6d1df408e"><path d="M 127.632812 105.835938 L 127.632812 159.347656 L 102.074219 159.347656 L 102.074219 186.101562 L 80.671875 186.101562 L 80.433594 188.425781 C 79.097656 203.003906 81.636719 216.449219 87.476562 227.945312 L 89.4375 231.46875 C 90.601562 233.582031 91.992188 235.566406 93.433594 237.503906 C 94.871094 239.441406 95.390625 240.507812 96.300781 241.792969 C 111.738281 259.148438 134.753906 267.527344 161.324219 267.527344 C 220.167969 267.527344 270.109375 241.425781 292.21875 182.789062 C 307.890625 184.398438 322.9375 180.375 329.789062 166.976562 C 318.871094 160.667969 304.835938 162.6875 296.75 166.757812 L 318.175781 105.832031 L 234.523438 159.339844 L 207.800781 159.339844 L 207.800781 105.832031 Z M 127.632812 105.835938 " clip-rule="nonzero"/></clipPath><clipPath id="b00086b61b"><path d="M 186 136 L 204 136 L 204 156 L 186 156 Z M 186 136 " clip-rule="nonzero"/></clipPath><clipPath id="0befe767ce"><path d="M 127.632812 105.835938 L 127.632812 159.347656 L 102.074219 159.347656 L 102.074219 186.101562 L 80.671875 186.101562 L 80.433594 188.425781 C 79.097656 203.003906 81.636719 216.449219 87.476562 227.945312 L 89.4375 231.46875 C 90.601562 233.582031 91.992188 235.566406 93.433594 237.503906 C 94.871094 239.441406 95.390625 240.507812 96.300781 241.792969 C 111.738281 259.148438 134.753906 267.527344 161.324219 267.527344 C 220.167969 267.527344 270.109375 241.425781 292.21875 182.789062 C 307.890625 184.398438 322.9375 180.375 329.789062 166.976562 C 318.871094 160.667969 304.835938 162.6875 296.75 166.757812 L 318.175781 105.832031 L 234.523438 159.339844 L 207.800781 159.339844 L 207.800781 105.832031 Z M 127.632812 105.835938 " clip-rule="nonzero"/></clipPath><clipPath id="eaff10bed0"><path d="M 185 135 L 205 135 L 205 157 L 185 157 Z M 185 135 " clip-rule="nonzero"/></clipPath><clipPath id="e7d6d37871"><path d="M 127.632812 105.835938 L 127.632812 159.347656 L 102.074219 159.347656 L 102.074219 186.101562 L 80.671875 186.101562 L 80.433594 188.425781 C 79.097656 203.003906 81.636719 216.449219 87.476562 227.945312 L 89.4375 231.46875 C 90.601562 233.582031 91.992188 235.566406 93.433594 237.503906 C 94.871094 239.441406 95.390625 240.507812 96.300781 241.792969 C 111.738281 259.148438 134.753906 267.527344 161.324219 267.527344 C 220.167969 267.527344 270.109375 241.425781 292.21875 182.789062 C 307.890625 184.398438 322.9375 180.375 329.789062 166.976562 C 318.871094 160.667969 304.835938 162.6875 296.75 166.757812 L 318.175781 105.832031 L 234.523438 159.339844 L 207.800781 159.339844 L 207.800781 105.832031 Z M 127.632812 105.835938 " clip-rule="nonzero"/></clipPath><clipPath id="e69c7fda9d"><path d="M 186 163 L 204 163 L 204 183 L 186 183 Z M 186 163 " clip-rule="nonzero"/></clipPath><clipPath id="826e222737"><path d="M 127.632812 105.835938 L 127.632812 159.347656 L 102.074219 159.347656 L 102.074219 186.101562 L 80.671875 186.101562 L 80.433594 188.425781 C 79.097656 203.003906 81.636719 216.449219 87.476562 227.945312 L 89.4375 231.46875 C 90.601562 233.582031 91.992188 235.566406 93.433594 237.503906 C 94.871094 239.441406 95.390625 240.507812 96.300781 241.792969 C 111.738281 259.148438 134.753906 267.527344 161.324219 267.527344 C 220.167969 267.527344 270.109375 241.425781 292.21875 182.789062 C 307.890625 184.398438 322.9375 180.375 329.789062 166.976562 C 318.871094 160.667969 304.835938 162.6875 296.75 166.757812 L 318.175781 105.832031 L 234.523438 159.339844 L 207.800781 159.339844 L 207.800781 105.832031 Z M 127.632812 105.835938 " clip-rule="nonzero"/></clipPath><clipPath id="bc0675638a"><path d="M 185 162 L 205 162 L 205 184 L 185 184 Z M 185 162 " clip-rule="nonzero"/></clipPath><clipPath id="51abfe19ab"><path d="M 127.632812 105.835938 L 127.632812 159.347656 L 102.074219 159.347656 L 102.074219 186.101562 L 80.671875 186.101562 L 80.433594 188.425781 C 79.097656 203.003906 81.636719 216.449219 87.476562 227.945312 L 89.4375 231.46875 C 90.601562 233.582031 91.992188 235.566406 93.433594 237.503906 C 94.871094 239.441406 95.390625 240.507812 96.300781 241.792969 C 111.738281 259.148438 134.753906 267.527344 161.324219 267.527344 C 220.167969 267.527344 270.109375 241.425781 292.21875 182.789062 C 307.890625 184.398438 322.9375 180.375 329.789062 166.976562 C 318.871094 160.667969 304.835938 162.6875 296.75 166.757812 L 318.175781 105.832031 L 234.523438 159.339844 L 207.800781 159.339844 L 207.800781 105.832031 Z M 127.632812 105.835938 " clip-rule="nonzero"/></clipPath><clipPath id="b8b4d8d110"><path d="M 209 161 L 233 161 L 233 185 L 209 185 Z M 209 161 " clip-rule="nonzero"/></clipPath><clipPath id="0595a37587"><path d="M 127.632812 105.835938 L 127.632812 159.347656 L 102.074219 159.347656 L 102.074219 186.101562 L 80.671875 186.101562 L 80.433594 188.425781 C 79.097656 203.003906 81.636719 216.449219 87.476562 227.945312 L 89.4375 231.46875 C 90.601562 233.582031 91.992188 235.566406 93.433594 237.503906 C 94.871094 239.441406 95.390625 240.507812 96.300781 241.792969 C 111.738281 259.148438 134.753906 267.527344 161.324219 267.527344 C 220.167969 267.527344 270.109375 241.425781 292.21875 182.789062 C 307.890625 184.398438 322.9375 180.375 329.789062 166.976562 C 318.871094 160.667969 304.835938 162.6875 296.75 166.757812 L 318.175781 105.832031 L 234.523438 159.339844 L 207.800781 159.339844 L 207.800781 105.832031 Z M 127.632812 105.835938 " clip-rule="nonzero"/></clipPath><clipPath id="89ff1616c8"><path d="M 209 134 L 233 134 L 233 158 L 209 158 Z M 209 134 " clip-rule="nonzero"/></clipPath><clipPath id="fc23c71586"><path d="M 127.632812 105.835938 L 127.632812 159.347656 L 102.074219 159.347656 L 102.074219 186.101562 L 80.671875 186.101562 L 80.433594 188.425781 C 79.097656 203.003906 81.636719 216.449219 87.476562 227.945312 L 89.4375 231.46875 C 90.601562 233.582031 91.992188 235.566406 93.433594 237.503906 C 94.871094 239.441406 95.390625 240.507812 96.300781 241.792969 C 111.738281 259.148438 134.753906 267.527344 161.324219 267.527344 C 220.167969 267.527344 270.109375 241.425781 292.21875 182.789062 C 307.890625 184.398438 322.9375 180.375 329.789062 166.976562 C 318.871094 160.667969 304.835938 162.6875 296.75 166.757812 L 318.175781 105.832031 L 234.523438 159.339844 L 207.800781 159.339844 L 207.800781 105.832031 Z M 127.632812 105.835938 " clip-rule="nonzero"/></clipPath><clipPath id="f89967254d"><path d="M 212 163 L 230 163 L 230 183 L 212 183 Z M 212 163 " clip-rule="nonzero"/></clipPath><clipPath id="62990108c8"><path d="M 127.632812 105.835938 L 127.632812 159.347656 L 102.074219 159.347656 L 102.074219 186.101562 L 80.671875 186.101562 L 80.433594 188.425781 C 79.097656 203.003906 81.636719 216.449219 87.476562 227.945312 L 89.4375 231.46875 C 90.601562 233.582031 91.992188 235.566406 93.433594 237.503906 C 94.871094 239.441406 95.390625 240.507812 96.300781 241.792969 C 111.738281 259.148438 134.753906 267.527344 161.324219 267.527344 C 220.167969 267.527344 270.109375 241.425781 292.21875 182.789062 C 307.890625 184.398438 322.9375 180.375 329.789062 166.976562 C 318.871094 160.667969 304.835938 162.6875 296.75 166.757812 L 318.175781 105.832031 L 234.523438 159.339844 L 207.800781 159.339844 L 207.800781 105.832031 Z M 127.632812 105.835938 " clip-rule="nonzero"/></clipPath><clipPath id="aab6f354a5"><path d="M 211 162 L 231 162 L 231 184 L 211 184 Z M 211 162 " clip-rule="nonzero"/></clipPath><clipPath id="09b7c945e5"><path d="M 127.632812 105.835938 L 127.632812 159.347656 L 102.074219 159.347656 L 102.074219 186.101562 L 80.671875 186.101562 L 80.433594 188.425781 C 79.097656 203.003906 81.636719 216.449219 87.476562 227.945312 L 89.4375 231.46875 C 90.601562 233.582031 91.992188 235.566406 93.433594 237.503906 C 94.871094 239.441406 95.390625 240.507812 96.300781 241.792969 C 111.738281 259.148438 134.753906 267.527344 161.324219 267.527344 C 220.167969 267.527344 270.109375 241.425781 292.21875 182.789062 C 307.890625 184.398438 322.9375 180.375 329.789062 166.976562 C 318.871094 160.667969 304.835938 162.6875 296.75 166.757812 L 318.175781 105.832031 L 234.523438 159.339844 L 207.800781 159.339844 L 207.800781 105.832031 Z M 127.632812 105.835938 " clip-rule="nonzero"/></clipPath><clipPath id="058ee93ae7"><path d="M 212 136 L 230 136 L 230 156 L 212 156 Z M 212 136 " clip-rule="nonzero"/></clipPath><clipPath id="4da89a3f3f"><path d="M 127.632812 105.835938 L 127.632812 159.347656 L 102.074219 159.347656 L 102.074219 186.101562 L 80.671875 186.101562 L 80.433594 188.425781 C 79.097656 203.003906 81.636719 216.449219 87.476562 227.945312 L 89.4375 231.46875 C 90.601562 233.582031 91.992188 235.566406 93.433594 237.503906 C 94.871094 239.441406 95.390625 240.507812 96.300781 241.792969 C 111.738281 259.148438 134.753906 267.527344 161.324219 267.527344 C 220.167969 267.527344 270.109375 241.425781 292.21875 182.789062 C 307.890625 184.398438 322.9375 180.375 329.789062 166.976562 C 318.871094 160.667969 304.835938 162.6875 296.75 166.757812 L 318.175781 105.832031 L 234.523438 159.339844 L 207.800781 159.339844 L 207.800781 105.832031 Z M 127.632812 105.835938 " clip-rule="nonzero"/></clipPath><clipPath id="169f304169"><path d="M 211 135 L 231 135 L 231 157 L 211 157 Z M 211 135 " clip-rule="nonzero"/></clipPath><clipPath id="f3f2b119ab"><path d="M 127.632812 105.835938 L 127.632812 159.347656 L 102.074219 159.347656 L 102.074219 186.101562 L 80.671875 186.101562 L 80.433594 188.425781 C 79.097656 203.003906 81.636719 216.449219 87.476562 227.945312 L 89.4375 231.46875 C 90.601562 233.582031 91.992188 235.566406 93.433594 237.503906 C 94.871094 239.441406 95.390625 240.507812 96.300781 241.792969 C 111.738281 259.148438 134.753906 267.527344 161.324219 267.527344 C 220.167969 267.527344 270.109375 241.425781 292.21875 182.789062 C 307.890625 184.398438 322.9375 180.375 329.789062 166.976562 C 318.871094 160.667969 304.835938 162.6875 296.75 166.757812 L 318.175781 105.832031 L 234.523438 159.339844 L 207.800781 159.339844 L 207.800781 105.832031 Z M 127.632812 105.835938 " clip-rule="nonzero"/></clipPath><clipPath id="53e18d43bf"><path d="M 80 136 L 329.789062 136 L 329.789062 267.53125 L 80 267.53125 Z M 80 136 " clip-rule="nonzero"/></clipPath><clipPath id="4a0dff01ad"><path d="M 127.632812 105.835938 L 127.632812 159.347656 L 102.074219 159.347656 L 102.074219 186.101562 L 80.671875 186.101562 L 80.433594 188.425781 C 79.097656 203.003906 81.636719 216.449219 87.476562 227.945312 L 89.4375 231.46875 C 90.601562 233.582031 91.992188 235.566406 93.433594 237.503906 C 94.871094 239.441406 95.390625 240.507812 96.300781 241.792969 C 111.738281 259.148438 134.753906 267.527344 161.324219 267.527344 C 220.167969 267.527344 270.109375 241.425781 292.21875 182.789062 C 307.890625 184.398438 322.9375 180.375 329.789062 166.976562 C 318.871094 160.667969 304.835938 162.6875 296.75 166.757812 L 318.175781 105.832031 L 234.523438 159.339844 L 207.800781 159.339844 L 207.800781 105.832031 Z M 127.632812 105.835938 " clip-rule="nonzero"/></clipPath><clipPath id="5de19d9676"><path d="M 80 207 L 329.789062 207 L 329.789062 267.53125 L 80 267.53125 Z M 80 207 " clip-rule="nonzero"/></clipPath><clipPath id="d7d7459633"><path d="M 127.632812 105.835938 L 127.632812 159.347656 L 102.074219 159.347656 L 102.074219 186.101562 L 80.671875 186.101562 L 80.433594 188.425781 C 79.097656 203.003906 81.636719 216.449219 87.476562 227.945312 L 89.4375 231.46875 C 90.601562 233.582031 91.992188 235.566406 93.433594 237.503906 C 94.871094 239.441406 95.390625 240.507812 96.300781 241.792969 C 111.738281 259.148438 134.753906 267.527344 161.324219 267.527344 C 220.167969 267.527344 270.109375 241.425781 292.21875 182.789062 C 307.890625 184.398438 322.9375 180.375 329.789062 166.976562 C 318.871094 160.667969 304.835938 162.6875 296.75 166.757812 L 318.175781 105.832031 L 234.523438 159.339844 L 207.800781 159.339844 L 207.800781 105.832031 Z M 127.632812 105.835938 " clip-rule="nonzero"/></clipPath><clipPath id="7037db01b8"><path d="M 91 238 L 169 238 L 169 267.53125 L 91 267.53125 Z M 91 238 " clip-rule="nonzero"/></clipPath><clipPath id="a09399a5b5"><path d="M 127.632812 105.835938 L 127.632812 159.347656 L 102.074219 159.347656 L 102.074219 186.101562 L 80.671875 186.101562 L 80.433594 188.425781 C 79.097656 203.003906 81.636719 216.449219 87.476562 227.945312 L 89.4375 231.46875 C 90.601562 233.582031 91.992188 235.566406 93.433594 237.503906 C 94.871094 239.441406 95.390625 240.507812 96.300781 241.792969 C 111.738281 259.148438 134.753906 267.527344 161.324219 267.527344 C 220.167969 267.527344 270.109375 241.425781 292.21875 182.789062 C 307.890625 184.398438 322.9375 180.375 329.789062 166.976562 C 318.871094 160.667969 304.835938 162.6875 296.75 166.757812 L 318.175781 105.832031 L 234.523438 159.339844 L 207.800781 159.339844 L 207.800781 105.832031 Z M 127.632812 105.835938 " clip-rule="nonzero"/></clipPath><clipPath id="debc85a08c"><path d="M 80 161 L 329.789062 161 L 329.789062 267.53125 L 80 267.53125 Z M 80 161 " clip-rule="nonzero"/></clipPath><clipPath id="64d5668580"><path d="M 127.632812 105.835938 L 127.632812 159.347656 L 102.074219 159.347656 L 102.074219 186.101562 L 80.671875 186.101562 L 80.433594 188.425781 C 79.097656 203.003906 81.636719 216.449219 87.476562 227.945312 L 89.4375 231.46875 C 90.601562 233.582031 91.992188 235.566406 93.433594 237.503906 C 94.871094 239.441406 95.390625 240.507812 96.300781 241.792969 C 111.738281 259.148438 134.753906 267.527344 161.324219 267.527344 C 220.167969 267.527344 270.109375 241.425781 292.21875 182.789062 C 307.890625 184.398438 322.9375 180.375 329.789062 166.976562 C 318.871094 160.667969 304.835938 162.6875 296.75 166.757812 L 318.175781 105.832031 L 234.523438 159.339844 L 207.800781 159.339844 L 207.800781 105.832031 Z M 127.632812 105.835938 " clip-rule="nonzero"/></clipPath></defs><g clip-path="url(#5dc0327730)"><path fill="#394d54" d="M 210.683594 156.707031 L 237.25 156.707031 L 237.25 183.898438 L 250.683594 183.898438 C 257.003906 183.867188 263.15625 182.832031 269.140625 180.796875 C 272.035156 179.816406 275.269531 178.453125 278.113281 176.742188 C 274.363281 171.839844 272.449219 165.652344 271.820312 159.542969 C 271.054688 151.246094 272.726562 140.441406 278.339844 133.949219 L 281.132812 130.714844 L 284.46875 133.394531 C 292.847656 140.132812 299.894531 149.550781 301.140625 160.292969 C 311.226562 157.320312 323.074219 158.023438 331.96875 163.164062 L 335.621094 165.277344 L 333.699219 169.03125 C 326.230469 183.707031 310.503906 188.261719 295.132812 187.457031 C 272.128906 244.8125 222.054688 271.972656 161.339844 271.972656 C 129.96875 271.972656 101.191406 260.230469 84.808594 232.367188 C 83.84375 230.632812 83.027344 228.824219 82.152344 227.050781 C 76.617188 214.785156 74.773438 201.347656 76.019531 187.992188 L 76.394531 183.972656 L 99.046875 183.972656 L 99.046875 156.726562 L 125.609375 156.726562 L 125.609375 130.128906 L 178.742188 130.128906 L 178.742188 103.535156 L 210.621094 103.535156 L 210.621094 156.734375 " fill-opacity="1" fill-rule="nonzero"/></g><g clip-path="url(#98f4e456d2)"><g clip-path="url(#973f6701ac)"><path fill="#20c2ef" d="M 183.238281 107.941406 L 206.261719 107.941406 L 206.261719 130.996094 L 183.234375 130.996094 Z M 183.238281 107.941406 " fill-opacity="1" fill-rule="nonzero"/></g></g><g clip-path="url(#6a6d0c0330)"><g clip-path="url(#d3ea2ece86)"><path fill="#000000" d="M 186.0625 129.074219 L 186.0625 109.859375 M 189.515625 129.074219 L 189.515625 109.859375 M 193 129.074219 L 193 109.859375 M 196.492188 129.074219 L 196.492188 109.859375 M 199.980469 129.074219 L 199.980469 109.859375 M 203.429688 129.074219 L 203.429688 109.859375 " fill-opacity="1" fill-rule="nonzero"/></g></g><g clip-path="url(#780fc89dcc)"><g clip-path="url(#23cacd8e33)"><path stroke-linecap="butt" transform="matrix(1.161824, 0, 0, 1.163278, 39.334345, 103.508372)" fill="none" stroke-linejoin="miter" d="M 126.291216 21.977416 L 126.291216 5.459574 M 129.263374 21.977416 L 129.263374 5.459574 M 132.26243 21.977416 L 132.26243 5.459574 M 135.268211 21.977416 L 135.268211 5.459574 M 138.270629 21.977416 L 138.270629 5.459574 M 141.239425 21.977416 L 141.239425 5.459574 " stroke="#394d54" stroke-width="1.56" stroke-opacity="1" stroke-miterlimit="4"/></g></g><g clip-path="url(#3921b97967)"><g clip-path="url(#6455daa353)"><path fill="#00acd3" d="M 209.804688 131.007812 L 232.828125 131.007812 L 232.828125 107.953125 L 209.800781 107.953125 Z M 209.804688 131.007812 " fill-opacity="1" fill-rule="nonzero"/></g></g><g clip-path="url(#fb5f750756)"><g clip-path="url(#b529d3a76a)"><path fill="#000000" d="M 212.628906 109.863281 L 212.628906 129.074219 M 216.082031 109.863281 L 216.082031 129.074219 M 219.566406 109.863281 L 219.566406 129.074219 M 223.058594 109.863281 L 223.058594 129.074219 M 226.546875 109.863281 L 226.546875 129.074219 M 229.996094 109.863281 L 229.996094 129.074219 " fill-opacity="1" fill-rule="nonzero"/></g></g><g clip-path="url(#a8b9494237)"><g clip-path="url(#a831874238)"><path stroke-linecap="butt" transform="matrix(1.161824, 0, 0, -1.163278, 65.900611, 135.427213)" fill="none" stroke-linejoin="miter" d="M 126.291336 21.975769 L 126.291336 5.461286 M 129.263495 21.975769 L 129.263495 5.461286 M 132.262551 21.975769 L 132.262551 5.461286 M 135.268331 21.975769 L 135.268331 5.461286 M 138.27075 21.975769 L 138.27075 5.461286 M 141.239546 21.975769 L 141.239546 5.461286 " stroke="#394d54" stroke-width="1.56" stroke-opacity="1" stroke-miterlimit="4"/></g></g><g clip-path="url(#69ee0633e0)"><g clip-path="url(#f18b748c68)"><path fill="#00acd3" d="M 76.972656 134.527344 L 99.996094 134.527344 L 99.996094 157.582031 L 76.96875 157.582031 Z M 76.972656 134.527344 " fill-opacity="1" fill-rule="nonzero"/></g></g><g clip-path="url(#8174f962a3)"><g clip-path="url(#21f63aabc1)"><path fill="#20c2ef" d="M 76.972656 161.140625 L 99.996094 161.140625 L 99.996094 184.191406 L 76.96875 184.191406 Z M 76.972656 161.140625 " fill-opacity="1" fill-rule="nonzero"/></g></g><g clip-path="url(#9da9494d14)"><g clip-path="url(#1831baad9b)"><path fill="#000000" d="M 79.796875 155.671875 L 79.796875 136.460938 M 83.25 155.671875 L 83.25 136.460938 M 86.738281 155.671875 L 86.738281 136.460938 M 90.226562 155.671875 L 90.226562 136.460938 M 93.714844 155.671875 L 93.714844 136.460938 M 97.164062 155.671875 L 97.164062 136.460938 " fill-opacity="1" fill-rule="nonzero"/></g></g><g clip-path="url(#a52a627205)"><g clip-path="url(#15755e62ad)"><path stroke-linecap="butt" transform="matrix(1.161824, 0, 0, 1.163278, -66.930716, 130.107882)" fill="none" stroke-linejoin="miter" d="M 126.29073 21.975822 L 126.29073 5.461339 M 129.262889 21.975822 L 129.262889 5.461339 M 132.265307 21.975822 L 132.265307 5.461339 M 135.267725 21.975822 L 135.267725 5.461339 M 138.270144 21.975822 L 138.270144 5.461339 M 141.23894 21.975822 L 141.23894 5.461339 " stroke="#394d54" stroke-width="1.56" stroke-opacity="1" stroke-miterlimit="4"/></g></g><g clip-path="url(#24948b1724)"><g clip-path="url(#3a715a516a)"><path fill="#000000" d="M 79.796875 182.273438 L 79.796875 163.058594 M 83.25 182.273438 L 83.25 163.058594 M 86.738281 182.273438 L 86.738281 163.058594 M 90.226562 182.273438 L 90.226562 163.058594 M 93.714844 182.273438 L 93.714844 163.058594 M 97.164062 182.273438 L 97.164062 163.058594 " fill-opacity="1" fill-rule="nonzero"/></g></g><g clip-path="url(#162806a02a)"><g clip-path="url(#2e38c00dd0)"><path stroke-linecap="butt" transform="matrix(1.161824, 0, 0, 1.163278, -66.930716, 156.707407)" fill="none" stroke-linejoin="miter" d="M 126.29073 21.977574 L 126.29073 5.459732 M 129.262889 21.977574 L 129.262889 5.459732 M 132.265307 21.977574 L 132.265307 5.459732 M 135.267725 21.977574 L 135.267725 5.459732 M 138.270144 21.977574 L 138.270144 5.459732 M 141.23894 21.977574 L 141.23894 5.459732 " stroke="#394d54" stroke-width="1.56" stroke-opacity="1" stroke-miterlimit="4"/></g></g><g clip-path="url(#670a2da60a)"><g clip-path="url(#c527ef3563)"><path fill="#00acd3" d="M 103.539062 184.207031 L 126.5625 184.207031 L 126.5625 161.152344 L 103.535156 161.152344 Z M 103.539062 184.207031 " fill-opacity="1" fill-rule="nonzero"/></g></g><g clip-path="url(#a72cf3b78c)"><g clip-path="url(#c045f0fb7f)"><path fill="#20c2ef" d="M 103.539062 157.59375 L 126.5625 157.59375 L 126.5625 134.539062 L 103.535156 134.539062 Z M 103.539062 157.59375 " fill-opacity="1" fill-rule="nonzero"/></g></g><g clip-path="url(#6179610155)"><g clip-path="url(#50b58c7c0f)"><path fill="#000000" d="M 106.363281 163.0625 L 106.363281 182.273438 M 109.816406 163.0625 L 109.816406 182.273438 M 113.304688 163.0625 L 113.304688 182.273438 M 116.792969 163.0625 L 116.792969 182.273438 M 120.28125 163.0625 L 120.28125 182.273438 M 123.730469 163.0625 L 123.730469 182.273438 " fill-opacity="1" fill-rule="nonzero"/></g></g><g clip-path="url(#f9499f9f1a)"><g clip-path="url(#2c46f496f5)"><path stroke-linecap="butt" transform="matrix(1.161824, 0, 0, -1.163278, -40.36445, 188.626248)" fill="none" stroke-linejoin="miter" d="M 126.290852 21.975611 L 126.290852 5.461127 M 129.26301 21.975611 L 129.26301 5.461127 M 132.265428 21.975611 L 132.265428 5.461127 M 135.267847 21.975611 L 135.267847 5.461127 M 138.270265 21.975611 L 138.270265 5.461127 M 141.239061 21.975611 L 141.239061 5.461127 " stroke="#394d54" stroke-width="1.56" stroke-opacity="1" stroke-miterlimit="4"/></g></g><g clip-path="url(#bba910da6a)"><g clip-path="url(#e468867bc9)"><path fill="#000000" d="M 106.363281 136.460938 L 106.363281 155.675781 M 109.816406 136.460938 L 109.816406 155.675781 M 113.304688 136.460938 L 113.304688 155.675781 M 116.792969 136.460938 L 116.792969 155.675781 M 120.28125 136.460938 L 120.28125 155.675781 M 123.730469 136.460938 L 123.730469 155.675781 " fill-opacity="1" fill-rule="nonzero"/></g></g><g clip-path="url(#4e4e25c718)"><g clip-path="url(#fb2c1686fe)"><path stroke-linecap="butt" transform="matrix(1.161824, 0, 0, -1.163278, -40.36445, 162.026723)" fill="none" stroke-linejoin="miter" d="M 126.290852 21.977363 L 126.290852 5.459521 M 129.26301 21.977363 L 129.26301 5.459521 M 132.265428 21.977363 L 132.265428 5.459521 M 135.267847 21.977363 L 135.267847 5.459521 M 138.270265 21.977363 L 138.270265 5.459521 M 141.239061 21.977363 L 141.239061 5.459521 " stroke="#394d54" stroke-width="1.56" stroke-opacity="1" stroke-miterlimit="4"/></g></g><g clip-path="url(#1dc81a1ddf)"><g clip-path="url(#8f17079d8b)"><path fill="#00acd3" d="M 130.105469 134.527344 L 153.128906 134.527344 L 153.128906 157.582031 L 130.101562 157.582031 Z M 130.105469 134.527344 " fill-opacity="1" fill-rule="nonzero"/></g></g><g clip-path="url(#04e78dcf35)"><g clip-path="url(#814f2f248c)"><path fill="#20c2ef" d="M 130.105469 161.140625 L 153.128906 161.140625 L 153.128906 184.191406 L 130.101562 184.191406 Z M 130.105469 161.140625 " fill-opacity="1" fill-rule="nonzero"/></g></g><g clip-path="url(#3919e2887d)"><g clip-path="url(#16d9e6f1b4)"><path fill="#000000" d="M 132.929688 155.671875 L 132.929688 136.460938 M 136.382812 155.671875 L 136.382812 136.460938 M 139.871094 155.671875 L 139.871094 136.460938 M 143.359375 155.671875 L 143.359375 136.460938 M 146.847656 155.671875 L 146.847656 136.460938 M 150.296875 155.671875 L 150.296875 136.460938 " fill-opacity="1" fill-rule="nonzero"/></g></g><g clip-path="url(#81193fa19b)"><g clip-path="url(#bd11eba7ec)"><path stroke-linecap="butt" transform="matrix(1.161824, 0, 0, 1.163278, -13.798185, 130.107882)" fill="none" stroke-linejoin="miter" d="M 126.290973 21.975822 L 126.290973 5.461339 M 129.263132 21.975822 L 129.263132 5.461339 M 132.26555 21.975822 L 132.26555 5.461339 M 135.267968 21.975822 L 135.267968 5.461339 M 138.270386 21.975822 L 138.270386 5.461339 M 141.239183 21.975822 L 141.239183 5.461339 " stroke="#394d54" stroke-width="1.56" stroke-opacity="1" stroke-miterlimit="4"/></g></g><g clip-path="url(#0998f1c07e)"><g clip-path="url(#3eb8c5d505)"><path fill="#000000" d="M 132.929688 182.273438 L 132.929688 163.058594 M 136.382812 182.273438 L 136.382812 163.058594 M 139.871094 182.273438 L 139.871094 163.058594 M 143.359375 182.273438 L 143.359375 163.058594 M 146.847656 182.273438 L 146.847656 163.058594 M 150.296875 182.273438 L 150.296875 163.058594 " fill-opacity="1" fill-rule="nonzero"/></g></g><g clip-path="url(#bbd8cbc131)"><g clip-path="url(#749ccd37ba)"><path stroke-linecap="butt" transform="matrix(1.161824, 0, 0, 1.163278, -13.798185, 156.707407)" fill="none" stroke-linejoin="miter" d="M 126.290973 21.977574 L 126.290973 5.459732 M 129.263132 21.977574 L 129.263132 5.459732 M 132.26555 21.977574 L 132.26555 5.459732 M 135.267968 21.977574 L 135.267968 5.459732 M 138.270386 21.977574 L 138.270386 5.459732 M 141.239183 21.977574 L 141.239183 5.459732 " stroke="#394d54" stroke-width="1.56" stroke-opacity="1" stroke-miterlimit="4"/></g></g><g clip-path="url(#6423f2d821)"><g clip-path="url(#aae3b912a6)"><path fill="#00acd3" d="M 156.671875 184.207031 L 179.695312 184.207031 L 179.695312 161.152344 L 156.667969 161.152344 Z M 156.671875 184.207031 " fill-opacity="1" fill-rule="nonzero"/></g></g><g clip-path="url(#bc66effeee)"><g clip-path="url(#e0083c13f0)"><path fill="#20c2ef" d="M 156.671875 157.59375 L 179.695312 157.59375 L 179.695312 134.539062 L 156.667969 134.539062 Z M 156.671875 157.59375 " fill-opacity="1" fill-rule="nonzero"/></g></g><g clip-path="url(#332870abd1)"><g clip-path="url(#c4b52157a7)"><path fill="#000000" d="M 159.496094 163.0625 L 159.496094 182.273438 M 162.949219 163.0625 L 162.949219 182.273438 M 166.4375 163.0625 L 166.4375 182.273438 M 169.925781 163.0625 L 169.925781 182.273438 M 173.414062 163.0625 L 173.414062 182.273438 M 176.863281 163.0625 L 176.863281 182.273438 " fill-opacity="1" fill-rule="nonzero"/></g></g><g clip-path="url(#e2d7dcb663)"><g clip-path="url(#8738669c5f)"><path stroke-linecap="butt" transform="matrix(1.161824, 0, 0, -1.163278, 12.76808, 188.626248)" fill="none" stroke-linejoin="miter" d="M 126.291095 21.975611 L 126.291095 5.461127 M 129.263253 21.975611 L 129.263253 5.461127 M 132.265671 21.975611 L 132.265671 5.461127 M 135.26809 21.975611 L 135.26809 5.461127 M 138.270508 21.975611 L 138.270508 5.461127 M 141.239304 21.975611 L 141.239304 5.461127 " stroke="#394d54" stroke-width="1.56" stroke-opacity="1" stroke-miterlimit="4"/></g></g><g clip-path="url(#6ea767b16f)"><g clip-path="url(#005ba6617c)"><path fill="#000000" d="M 159.496094 136.460938 L 159.496094 155.675781 M 162.949219 136.460938 L 162.949219 155.675781 M 166.4375 136.460938 L 166.4375 155.675781 M 169.925781 136.460938 L 169.925781 155.675781 M 173.414062 136.460938 L 173.414062 155.675781 M 176.863281 136.460938 L 176.863281 155.675781 " fill-opacity="1" fill-rule="nonzero"/></g></g><g clip-path="url(#38be76c96e)"><g clip-path="url(#8525549c5f)"><path stroke-linecap="butt" transform="matrix(1.161824, 0, 0, -1.163278, 12.76808, 162.026723)" fill="none" stroke-linejoin="miter" d="M 126.291095 21.977363 L 126.291095 5.459521 M 129.263253 21.977363 L 129.263253 5.459521 M 132.265671 21.977363 L 132.265671 5.459521 M 135.26809 21.977363 L 135.26809 5.459521 M 138.270508 21.977363 L 138.270508 5.459521 M 141.239304 21.977363 L 141.239304 5.459521 " stroke="#394d54" stroke-width="1.56" stroke-opacity="1" stroke-miterlimit="4"/></g></g><g clip-path="url(#8a339229cc)"><g clip-path="url(#27e530cc63)"><path fill="#00acd3" d="M 183.238281 134.527344 L 206.261719 134.527344 L 206.261719 157.582031 L 183.234375 157.582031 Z M 183.238281 134.527344 " fill-opacity="1" fill-rule="nonzero"/></g></g><g clip-path="url(#c86395a8fb)"><g clip-path="url(#d6d1df408e)"><path fill="#20c2ef" d="M 183.238281 161.140625 L 206.261719 161.140625 L 206.261719 184.191406 L 183.234375 184.191406 Z M 183.238281 161.140625 " fill-opacity="1" fill-rule="nonzero"/></g></g><g clip-path="url(#b00086b61b)"><g clip-path="url(#0befe767ce)"><path fill="#000000" d="M 186.0625 155.671875 L 186.0625 136.460938 M 189.515625 155.671875 L 189.515625 136.460938 M 193 155.671875 L 193 136.460938 M 196.492188 155.671875 L 196.492188 136.460938 M 199.980469 155.671875 L 199.980469 136.460938 M 203.429688 155.671875 L 203.429688 136.460938 " fill-opacity="1" fill-rule="nonzero"/></g></g><g clip-path="url(#eaff10bed0)"><g clip-path="url(#e7d6d37871)"><path stroke-linecap="butt" transform="matrix(1.161824, 0, 0, 1.163278, 39.334345, 130.107882)" fill="none" stroke-linejoin="miter" d="M 126.291216 21.975822 L 126.291216 5.461339 M 129.263374 21.975822 L 129.263374 5.461339 M 132.26243 21.975822 L 132.26243 5.461339 M 135.268211 21.975822 L 135.268211 5.461339 M 138.270629 21.975822 L 138.270629 5.461339 M 141.239425 21.975822 L 141.239425 5.461339 " stroke="#394d54" stroke-width="1.56" stroke-opacity="1" stroke-miterlimit="4"/></g></g><g clip-path="url(#e69c7fda9d)"><g clip-path="url(#826e222737)"><path fill="#000000" d="M 186.0625 182.273438 L 186.0625 163.058594 M 189.515625 182.273438 L 189.515625 163.058594 M 193 182.273438 L 193 163.058594 M 196.492188 182.273438 L 196.492188 163.058594 M 199.980469 182.273438 L 199.980469 163.058594 M 203.429688 182.273438 L 203.429688 163.058594 " fill-opacity="1" fill-rule="nonzero"/></g></g><g clip-path="url(#bc0675638a)"><g clip-path="url(#51abfe19ab)"><path stroke-linecap="butt" transform="matrix(1.161824, 0, 0, 1.163278, 39.334345, 156.707407)" fill="none" stroke-linejoin="miter" d="M 126.291216 21.977574 L 126.291216 5.459732 M 129.263374 21.977574 L 129.263374 5.459732 M 132.26243 21.977574 L 132.26243 5.459732 M 135.268211 21.977574 L 135.268211 5.459732 M 138.270629 21.977574 L 138.270629 5.459732 M 141.239425 21.977574 L 141.239425 5.459732 " stroke="#394d54" stroke-width="1.56" stroke-opacity="1" stroke-miterlimit="4"/></g></g><g clip-path="url(#b8b4d8d110)"><g clip-path="url(#0595a37587)"><path fill="#00acd3" d="M 209.804688 184.207031 L 232.828125 184.207031 L 232.828125 161.152344 L 209.800781 161.152344 Z M 209.804688 184.207031 " fill-opacity="1" fill-rule="nonzero"/></g></g><g clip-path="url(#89ff1616c8)"><g clip-path="url(#fc23c71586)"><path fill="#20c2ef" d="M 209.804688 157.59375 L 232.828125 157.59375 L 232.828125 134.539062 L 209.800781 134.539062 Z M 209.804688 157.59375 " fill-opacity="1" fill-rule="nonzero"/></g></g><g clip-path="url(#f89967254d)"><g clip-path="url(#62990108c8)"><path fill="#000000" d="M 212.628906 163.0625 L 212.628906 182.273438 M 216.082031 163.0625 L 216.082031 182.273438 M 219.566406 163.0625 L 219.566406 182.273438 M 223.058594 163.0625 L 223.058594 182.273438 M 226.546875 163.0625 L 226.546875 182.273438 M 229.996094 163.0625 L 229.996094 182.273438 " fill-opacity="1" fill-rule="nonzero"/></g></g><g clip-path="url(#aab6f354a5)"><g clip-path="url(#09b7c945e5)"><path stroke-linecap="butt" transform="matrix(1.161824, 0, 0, -1.163278, 65.900611, 188.626248)" fill="none" stroke-linejoin="miter" d="M 126.291336 21.975611 L 126.291336 5.461127 M 129.263495 21.975611 L 129.263495 5.461127 M 132.262551 21.975611 L 132.262551 5.461127 M 135.268331 21.975611 L 135.268331 5.461127 M 138.27075 21.975611 L 138.27075 5.461127 M 141.239546 21.975611 L 141.239546 5.461127 " stroke="#394d54" stroke-width="1.56" stroke-opacity="1" stroke-miterlimit="4"/></g></g><g clip-path="url(#058ee93ae7)"><g clip-path="url(#4da89a3f3f)"><path fill="#000000" d="M 212.628906 136.460938 L 212.628906 155.675781 M 216.082031 136.460938 L 216.082031 155.675781 M 219.566406 136.460938 L 219.566406 155.675781 M 223.058594 136.460938 L 223.058594 155.675781 M 226.546875 136.460938 L 226.546875 155.675781 M 229.996094 136.460938 L 229.996094 155.675781 " fill-opacity="1" fill-rule="nonzero"/></g></g><g clip-path="url(#169f304169)"><g clip-path="url(#f3f2b119ab)"><path stroke-linecap="butt" transform="matrix(1.161824, 0, 0, -1.163278, 65.900611, 162.026723)" fill="none" stroke-linejoin="miter" d="M 126.291336 21.977363 L 126.291336 5.459521 M 129.263495 21.977363 L 129.263495 5.459521 M 132.262551 21.977363 L 132.262551 5.459521 M 135.268331 21.977363 L 135.268331 5.459521 M 138.27075 21.977363 L 138.27075 5.459521 M 141.239546 21.977363 L 141.239546 5.459521 " stroke="#394d54" stroke-width="1.56" stroke-opacity="1" stroke-miterlimit="4"/></g></g><g clip-path="url(#53e18d43bf)"><g clip-path="url(#4a0dff01ad)"><path fill="#17b5eb" d="M 296.757812 166.765625 C 298.539062 152.90625 288.179688 142.019531 281.757812 136.851562 C 274.351562 145.421875 273.203125 167.882812 284.816406 177.339844 C 278.335938 183.105469 264.675781 188.332031 250.6875 188.332031 L 78.832031 188.332031 C 77.472656 202.949219 78.832031 273.347656 78.832031 273.347656 L 330.945312 273.347656 L 329.800781 166.996094 C 318.878906 160.6875 304.839844 162.699219 296.753906 166.765625 " fill-opacity="1" fill-rule="nonzero"/></g></g><g clip-path="url(#5de19d9676)"><g clip-path="url(#d7d7459633)"><path fill="#000000" d="M 78.835938 207.039062 L 78.835938 273.347656 L 330.953125 273.347656 L 330.953125 207.039062 " fill-opacity="0.1686" fill-rule="nonzero"/></g></g><g clip-path="url(#7037db01b8)"><g clip-path="url(#a09399a5b5)"><path fill="#d4edf1" d="M 168.574219 267.414062 C 152.84375 259.941406 144.210938 249.777344 139.40625 238.6875 L 91.617188 240.769531 L 116.015625 273.34375 L 168.570312 267.410156 " fill-opacity="1" fill-rule="nonzero"/></g></g><g clip-path="url(#debc85a08c)"><g clip-path="url(#64d5668580)"><path fill="#000000" d="M 297.839844 166.253906 L 297.839844 166.289062 C 273.605469 197.582031 238.839844 224.894531 201.519531 239.25 C 168.226562 252.054688 139.199219 252.113281 119.171875 241.832031 C 117.015625 240.613281 114.902344 239.257812 112.785156 237.980469 C 98.101562 227.703125 89.832031 210.710938 90.527344 188.320312 L 78.839844 188.320312 L 78.839844 273.347656 L 330.957031 273.347656 L 330.957031 161.671875 L 301.910156 161.671875 Z M 297.839844 166.253906 " fill-opacity="0.0863" fill-rule="nonzero"/></g></g><path stroke-linecap="round" transform="matrix(6.291692, 0, 0, 6.299567, 20.015705, 179.090585)" fill="none" stroke-linejoin="miter" d="M 11.495802 9.613018 C 14.112099 9.756257 16.902858 9.78292 19.337865 9.018979 " stroke="#394d54" stroke-width="0.628" stroke-opacity="1" stroke-miterlimit="4"/><path fill="#d4edf1" d="M 158.035156 227.929688 C 158.035156 228.347656 157.996094 228.761719 157.914062 229.171875 C 157.832031 229.578125 157.710938 229.976562 157.550781 230.363281 C 157.390625 230.746094 157.195312 231.113281 156.964844 231.460938 C 156.734375 231.808594 156.46875 232.128906 156.175781 232.425781 C 155.878906 232.71875 155.558594 232.980469 155.214844 233.214844 C 154.867188 233.445312 154.5 233.640625 154.117188 233.800781 C 153.730469 233.960938 153.335938 234.082031 152.925781 234.164062 C 152.519531 234.246094 152.105469 234.285156 151.6875 234.289062 C 151.269531 234.289062 150.859375 234.246094 150.449219 234.164062 C 150.039062 234.082031 149.644531 233.964844 149.257812 233.804688 C 148.871094 233.644531 148.507812 233.449219 148.160156 233.214844 C 147.8125 232.984375 147.492188 232.722656 147.195312 232.425781 C 146.902344 232.132812 146.636719 231.808594 146.40625 231.464844 C 146.175781 231.117188 145.980469 230.75 145.820312 230.363281 C 145.660156 229.976562 145.539062 229.582031 145.457031 229.171875 C 145.375 228.761719 145.335938 228.347656 145.332031 227.929688 C 145.332031 227.511719 145.375 227.097656 145.457031 226.691406 C 145.539062 226.28125 145.65625 225.882812 145.816406 225.496094 C 145.976562 225.109375 146.171875 224.742188 146.40625 224.394531 C 146.636719 224.050781 146.898438 223.726562 147.195312 223.433594 C 147.488281 223.136719 147.8125 222.871094 148.15625 222.640625 C 148.503906 222.410156 148.871094 222.210938 149.257812 222.054688 C 149.640625 221.894531 150.039062 221.773438 150.449219 221.691406 C 150.859375 221.609375 151.269531 221.570312 151.6875 221.570312 C 152.105469 221.570312 152.519531 221.609375 152.925781 221.691406 C 153.335938 221.773438 153.734375 221.894531 154.117188 222.054688 C 154.503906 222.214844 154.867188 222.410156 155.214844 222.644531 C 155.5625 222.875 155.882812 223.140625 156.175781 223.433594 C 156.472656 223.730469 156.734375 224.050781 156.96875 224.398438 C 157.199219 224.746094 157.394531 225.113281 157.554688 225.496094 C 157.714844 225.882812 157.832031 226.28125 157.914062 226.691406 C 157.996094 227.101562 158.035156 227.511719 158.035156 227.929688 Z M 158.035156 227.929688 " fill-opacity="1" fill-rule="nonzero"/><path fill="#394d54" d="M 153.398438 223.691406 C 152.847656 224.007812 152.46875 224.609375 152.46875 225.304688 C 152.46875 226.332031 153.300781 227.164062 154.324219 227.164062 C 155.027344 227.164062 155.582031 226.773438 155.960938 226.191406 C 156.191406 226.75 156.304688 227.332031 156.304688 227.9375 C 156.304688 230.457031 154.269531 232.492188 151.757812 232.492188 C 149.246094 232.492188 147.207031 230.449219 147.207031 227.9375 C 147.207031 225.425781 149.246094 223.382812 151.757812 223.382812 C 152.328125 223.382812 152.875 223.484375 153.40625 223.691406 Z M 39.332031 208.382812 L 334.8125 208.382812 C 328.378906 206.746094 314.460938 204.605469 316.757812 196.097656 C 305.054688 209.65625 276.84375 205.546875 269.726562 198.921875 C 261.800781 210.4375 215.636719 206.058594 212.421875 197.03125 C 202.480469 208.710938 171.683594 208.710938 161.742188 197.03125 C 158.519531 206.003906 112.363281 210.386719 104.488281 198.921875 C 97.304688 205.546875 69.089844 209.664062 57.386719 196.097656 C 59.683594 204.539062 45.761719 206.808594 39.332031 208.382812 " fill-opacity="1" fill-rule="nonzero"/></svg>