<svg xmlns="http://www.w3.org/2000/svg" xmlns:xlink="http://www.w3.org/1999/xlink" width="500" zoomAndPan="magnify" viewBox="0 0 375 374.999991" height="500" preserveAspectRatio="xMidYMid meet" version="1.0"><defs><clipPath id="id1"><path d="M 39 156 L 336 156 L 336 223.296875 L 39 223.296875 Z M 39 156 " clip-rule="nonzero"/></clipPath></defs><g clip-path="url(#id1)"><path fill="#6b7280" d="M 131.230469 223.445312 L 131.230469 158.289062 L 134.75 158.289062 L 134.75 168.539062 C 135.164062 168.082031 135.546875 167.601562 135.894531 167.09375 C 138.832031 160.96875 145.027344 157.105469 151.792969 157.179688 C 159.808594 156.941406 166.324219 159.921875 170.15625 167.09375 C 171.375 169.320312 172.3125 171.660156 172.972656 174.113281 C 173.636719 176.566406 174 179.0625 174.066406 181.605469 C 174.132812 184.144531 173.898438 186.65625 173.367188 189.140625 C 172.835938 191.628906 172.019531 194.015625 170.921875 196.300781 C 167.351562 204.339844 158.542969 208.332031 149.109375 206.867188 C 147.640625 206.738281 146.210938 206.433594 144.820312 205.949219 C 143.425781 205.464844 142.117188 204.8125 140.886719 204 C 139.65625 203.183594 138.546875 202.226562 137.554688 201.132812 C 136.5625 200.039062 135.722656 198.835938 135.03125 197.53125 L 135.03125 223.441406 Z M 134.75 181.335938 L 135.535156 188.988281 C 136.925781 197.695312 142.050781 202.84375 150.09375 203.808594 C 151.03125 203.964844 151.972656 204.039062 152.921875 204.027344 C 153.875 204.019531 154.816406 203.929688 155.75 203.757812 C 156.683594 203.585938 157.597656 203.335938 158.488281 203.007812 C 159.378906 202.675781 160.238281 202.273438 161.058594 201.796875 C 161.882812 201.316406 162.65625 200.773438 163.386719 200.160156 C 164.113281 199.546875 164.785156 198.878906 165.398438 198.148438 C 166.015625 197.421875 166.5625 196.644531 167.042969 195.820312 C 167.523438 195 167.929688 194.140625 168.265625 193.246094 C 171.394531 185.753906 171.164062 177.269531 167.644531 169.953125 C 167.289062 169.152344 166.871094 168.382812 166.390625 167.652344 C 165.910156 166.917969 165.375 166.226562 164.785156 165.578125 C 164.191406 164.933594 163.554688 164.339844 162.867188 163.796875 C 162.179688 163.253906 161.453125 162.769531 160.6875 162.34375 C 159.921875 161.917969 159.128906 161.558594 158.304688 161.261719 C 157.484375 160.96875 156.640625 160.738281 155.78125 160.582031 C 154.921875 160.421875 154.054688 160.332031 153.183594 160.316406 C 152.308594 160.296875 151.4375 160.351562 150.574219 160.472656 C 149.761719 160.535156 148.957031 160.65625 148.164062 160.839844 C 147.371094 161.023438 146.59375 161.269531 145.839844 161.574219 C 145.082031 161.878906 144.355469 162.242188 143.652344 162.660156 C 142.953125 163.078125 142.289062 163.546875 141.660156 164.070312 C 141.035156 164.589844 140.449219 165.160156 139.910156 165.769531 C 139.367188 166.382812 138.878906 167.035156 138.4375 167.722656 C 137.996094 168.414062 137.613281 169.132812 137.28125 169.878906 C 136.953125 170.628906 136.683594 171.398438 136.472656 172.191406 C 135.722656 175.207031 135.148438 178.253906 134.75 181.335938 Z M 245.871094 190.191406 C 245.742188 191.332031 245.507812 192.445312 245.175781 193.542969 C 244.84375 194.636719 244.414062 195.695312 243.894531 196.710938 C 243.371094 197.730469 242.761719 198.691406 242.066406 199.601562 C 241.375 200.507812 240.601562 201.347656 239.757812 202.113281 C 238.914062 202.882812 238.003906 203.570312 237.039062 204.171875 C 236.070312 204.777344 235.054688 205.289062 233.996094 205.710938 C 232.933594 206.128906 231.84375 206.449219 230.726562 206.671875 C 229.609375 206.894531 228.480469 207.015625 227.339844 207.035156 C 212.59375 207.78125 205.671875 197.941406 204.570312 186.582031 C 204.1875 183.5 204.242188 180.421875 204.730469 177.351562 C 205.21875 174.285156 206.125 171.34375 207.445312 168.535156 C 207.902344 167.578125 208.429688 166.660156 209.03125 165.789062 C 209.632812 164.914062 210.296875 164.09375 211.027344 163.324219 C 211.757812 162.558594 212.542969 161.851562 213.382812 161.210938 C 214.226562 160.566406 215.113281 159.992188 216.042969 159.492188 C 216.976562 158.988281 217.941406 158.566406 218.9375 158.214844 C 219.9375 157.867188 220.957031 157.601562 221.996094 157.414062 C 223.039062 157.226562 224.085938 157.125 225.144531 157.105469 C 226.199219 157.085938 227.25 157.152344 228.296875 157.296875 C 229.292969 157.382812 230.273438 157.546875 231.246094 157.785156 C 232.214844 158.023438 233.160156 158.339844 234.082031 158.726562 C 235.003906 159.113281 235.886719 159.570312 236.738281 160.097656 C 237.585938 160.625 238.390625 161.214844 239.148438 161.871094 C 239.90625 162.523438 240.609375 163.230469 241.257812 163.996094 C 241.90625 164.761719 242.492188 165.570312 243.011719 166.425781 C 243.535156 167.28125 243.984375 168.171875 244.371094 169.097656 C 244.753906 170.027344 245.0625 170.976562 245.296875 171.953125 C 246.046875 175.53125 246.597656 179.140625 246.949219 182.78125 L 208.214844 182.78125 C 207.496094 193.078125 213.003906 201.359375 220.808594 203.355469 C 230.527344 205.757812 238.835938 201.523438 241.851562 192.238281 C 242.523438 189.851562 243.742188 189.515625 245.898438 190.191406 Z M 208.1875 179.484375 L 242.832031 179.484375 C 242.613281 168.515625 235.816406 160.542969 226.597656 160.453125 C 216.1875 160.28125 208.640625 167.933594 208.1875 179.484375 Z M 253.035156 190.433594 L 256.429688 190.433594 C 256.492188 191.691406 256.722656 192.914062 257.121094 194.109375 C 257.519531 195.300781 258.070312 196.417969 258.777344 197.457031 C 259.480469 198.5 260.316406 199.421875 261.273438 200.230469 C 262.234375 201.042969 263.285156 201.703125 264.425781 202.222656 C 265.859375 202.871094 267.34375 203.351562 268.886719 203.660156 C 270.425781 203.972656 271.984375 204.109375 273.554688 204.066406 C 275.125 204.023438 276.671875 203.808594 278.195312 203.414062 C 279.71875 203.023438 281.175781 202.464844 282.574219 201.742188 C 283.335938 201.398438 284.027344 200.945312 284.652344 200.386719 C 285.277344 199.828125 285.800781 199.191406 286.230469 198.46875 C 286.65625 197.746094 286.96875 196.980469 287.164062 196.164062 C 287.355469 195.347656 287.421875 194.519531 287.363281 193.679688 C 287.40625 192.875 287.320312 192.082031 287.109375 191.300781 C 286.894531 190.519531 286.5625 189.796875 286.113281 189.125 C 285.664062 188.453125 285.121094 187.871094 284.480469 187.378906 C 283.84375 186.886719 283.144531 186.507812 282.382812 186.246094 C 278.648438 184.847656 274.675781 184.078125 270.867188 182.851562 C 266.902344 181.71875 263.039062 180.296875 259.277344 178.59375 C 253.144531 175.585938 252.765625 163.871094 259.710938 160.160156 C 261.488281 159.152344 263.359375 158.378906 265.332031 157.84375 C 267.300781 157.308594 269.308594 157.023438 271.347656 156.992188 C 273.390625 156.960938 275.402344 157.179688 277.386719 157.65625 C 279.375 158.132812 281.269531 158.84375 283.078125 159.796875 C 287.5625 162.285156 290.042969 167.308594 289.304688 172.410156 L 286.390625 172.410156 C 286.390625 172.265625 286.128906 172.140625 286.128906 172 C 285.765625 162.667969 277.964844 159.75 269.585938 160.570312 C 267.050781 160.851562 264.652344 161.621094 262.402344 162.757812 C 261.726562 163.070312 261.113281 163.476562 260.5625 163.976562 C 260.011719 164.480469 259.546875 165.054688 259.175781 165.699219 C 258.800781 166.347656 258.535156 167.035156 258.375 167.765625 C 258.214844 168.496094 258.171875 169.234375 258.238281 169.976562 C 258.238281 170.722656 258.351562 171.449219 258.578125 172.15625 C 258.804688 172.867188 259.132812 173.527344 259.558594 174.132812 C 259.988281 174.742188 260.5 175.269531 261.089844 175.71875 C 261.683594 176.167969 262.328125 176.515625 263.027344 176.761719 C 266.683594 178.109375 270.566406 178.976562 274.351562 180.035156 L 283.496094 182.4375 C 284.535156 182.78125 285.5 183.269531 286.390625 183.90625 C 287.28125 184.542969 288.058594 185.300781 288.71875 186.175781 C 289.382812 187.050781 289.902344 188.003906 290.277344 189.035156 C 290.648438 190.066406 290.863281 191.132812 290.917969 192.230469 C 291.648438 197.164062 289.144531 202.015625 284.714844 204.261719 C 276.71875 208.808594 263.550781 207.605469 257.683594 201.859375 C 254.683594 198.824219 253.007812 194.703125 253.042969 190.429688 Z M 334.003906 172.410156 L 330.820312 172.410156 C 330.820312 171.980469 330.648438 171.5625 330.601562 171.230469 C 330.589844 170.636719 330.527344 170.046875 330.414062 169.460938 C 330.300781 168.878906 330.140625 168.304688 329.929688 167.75 C 329.71875 167.191406 329.464844 166.65625 329.164062 166.144531 C 328.863281 165.632812 328.519531 165.148438 328.136719 164.691406 C 327.753906 164.238281 327.335938 163.820312 326.882812 163.4375 C 326.429688 163.054688 325.945312 162.714844 325.433594 162.414062 C 324.921875 162.113281 324.386719 161.859375 323.832031 161.652344 C 323.277344 161.445312 322.707031 161.285156 322.125 161.175781 C 319.914062 160.539062 317.65625 160.273438 315.355469 160.386719 C 313.054688 160.496094 310.835938 160.976562 308.695312 161.824219 C 307.847656 162.070312 307.058594 162.441406 306.332031 162.941406 C 305.605469 163.441406 304.976562 164.042969 304.441406 164.746094 C 303.910156 165.453125 303.5 166.222656 303.21875 167.0625 C 302.933594 167.898438 302.785156 168.761719 302.78125 169.644531 C 302.765625 170.078125 302.785156 170.507812 302.84375 170.933594 C 302.902344 171.363281 302.996094 171.78125 303.128906 172.191406 C 303.257812 172.605469 303.421875 173.003906 303.617188 173.386719 C 303.816406 173.769531 304.046875 174.132812 304.304688 174.476562 C 304.566406 174.820312 304.851562 175.136719 305.167969 175.433594 C 305.480469 175.726562 305.816406 175.992188 306.175781 176.230469 C 306.535156 176.464844 306.914062 176.667969 307.308594 176.839844 C 307.703125 177.011719 308.109375 177.148438 308.523438 177.25 L 323.082031 181.003906 C 324.65625 181.382812 326.203125 181.855469 327.722656 182.421875 C 332.367188 184.121094 335.515625 188.449219 335.65625 193.402344 C 335.691406 194.613281 335.546875 195.804688 335.226562 196.96875 C 334.902344 198.136719 334.414062 199.230469 333.761719 200.25 C 333.109375 201.269531 332.320312 202.171875 331.394531 202.949219 C 330.472656 203.730469 329.453125 204.355469 328.34375 204.824219 C 326.652344 205.59375 324.902344 206.183594 323.09375 206.585938 C 321.28125 206.988281 319.449219 207.203125 317.59375 207.21875 C 315.738281 207.238281 313.898438 207.066406 312.082031 206.699219 C 310.261719 206.332031 308.5 205.777344 306.796875 205.042969 C 306.097656 204.738281 305.429688 204.386719 304.785156 203.980469 C 304.140625 203.578125 303.53125 203.125 302.957031 202.628906 C 302.382812 202.132812 301.847656 201.59375 301.355469 201.011719 C 300.863281 200.433594 300.417969 199.820312 300.015625 199.171875 C 299.617188 198.523438 299.265625 197.847656 298.96875 197.148438 C 298.671875 196.445312 298.429688 195.726562 298.238281 194.988281 C 298.050781 194.25 297.917969 193.5 297.84375 192.742188 C 297.769531 191.984375 297.75 191.222656 297.792969 190.460938 L 300.902344 190.460938 C 302.074219 196.128906 305.949219 200.851562 311.261719 203.085938 C 316.578125 205.320312 322.644531 204.769531 327.480469 201.625 C 328.203125 201.246094 328.863281 200.773438 329.453125 200.207031 C 330.042969 199.636719 330.539062 198.996094 330.949219 198.285156 C 331.355469 197.574219 331.65625 196.816406 331.847656 196.019531 C 332.039062 195.222656 332.117188 194.410156 332.078125 193.589844 C 332.113281 192.78125 332.019531 191.988281 331.796875 191.210938 C 331.578125 190.433594 331.238281 189.710938 330.78125 189.046875 C 330.328125 188.378906 329.777344 187.800781 329.132812 187.316406 C 328.492188 186.828125 327.789062 186.457031 327.023438 186.203125 C 323.289062 184.804688 319.316406 184.0625 315.507812 182.808594 C 311.519531 181.691406 307.632812 180.289062 303.847656 178.601562 C 297.863281 175.640625 297.382812 164.019531 304.210938 160.3125 C 306.007812 159.261719 307.914062 158.460938 309.917969 157.90625 C 311.925781 157.347656 313.96875 157.058594 316.050781 157.035156 C 318.132812 157.011719 320.179688 157.257812 322.199219 157.765625 C 324.21875 158.277344 326.136719 159.035156 327.960938 160.046875 C 329.003906 160.671875 329.933594 161.433594 330.757812 162.332031 C 331.578125 163.230469 332.257812 164.226562 332.789062 165.320312 C 333.324219 166.417969 333.691406 167.566406 333.890625 168.769531 C 334.09375 169.972656 334.117188 171.179688 333.96875 172.390625 Z M 125.445312 205.859375 C 124.816406 206.097656 124.167969 206.214844 123.5 206.214844 C 122.828125 206.214844 122.179688 206.09375 121.554688 205.855469 C 120.925781 205.617188 120.363281 205.273438 119.863281 204.824219 C 119.359375 204.378906 118.957031 203.855469 118.644531 203.261719 L 106.265625 186.054688 L 104.46875 183.652344 L 90.105469 203.285156 C 89.8125 203.855469 89.429688 204.359375 88.953125 204.789062 C 88.480469 205.21875 87.945312 205.550781 87.351562 205.785156 C 86.753906 206.019531 86.136719 206.140625 85.5 206.152344 C 84.859375 206.160156 84.242188 206.054688 83.640625 205.835938 L 102.144531 180.886719 L 84.929688 158.339844 C 87.484375 157.410156 90.328125 158.417969 91.75 160.742188 L 104.578125 178.160156 L 117.484375 160.808594 C 117.78125 160.25 118.164062 159.757812 118.640625 159.339844 C 119.113281 158.921875 119.644531 158.601562 120.238281 158.378906 C 120.828125 158.15625 121.441406 158.046875 122.074219 158.054688 C 122.703125 158.058594 123.3125 158.175781 123.902344 158.402344 L 117.230469 167.3125 L 108.179688 179.152344 C 107.925781 179.378906 107.726562 179.648438 107.589844 179.960938 C 107.449219 180.273438 107.378906 180.601562 107.378906 180.945312 C 107.378906 181.285156 107.449219 181.613281 107.589844 181.925781 C 107.726562 182.238281 107.925781 182.507812 108.179688 182.738281 L 125.417969 205.859375 Z M 204.023438 158.097656 L 204.023438 161.492188 C 203.417969 161.453125 202.816406 161.445312 202.210938 161.46875 C 201.605469 161.492188 201.003906 161.546875 200.40625 161.632812 C 199.808594 161.71875 199.214844 161.839844 198.628906 161.988281 C 198.042969 162.136719 197.464844 162.316406 196.894531 162.527344 C 196.328125 162.734375 195.773438 162.976562 195.230469 163.242188 C 194.6875 163.511719 194.160156 163.808594 193.648438 164.132812 C 193.136719 164.453125 192.640625 164.804688 192.164062 165.179688 C 191.6875 165.554688 191.234375 165.957031 190.800781 166.378906 C 190.367188 166.800781 189.953125 167.246094 189.566406 167.714844 C 189.179688 168.179688 188.816406 168.664062 188.476562 169.171875 C 188.140625 169.675781 187.832031 170.195312 187.546875 170.734375 C 187.265625 171.269531 187.007812 171.820312 186.785156 172.386719 C 186.558594 172.949219 186.363281 173.523438 186.195312 174.109375 C 186.03125 174.691406 185.894531 175.285156 185.789062 175.882812 C 185.683594 176.484375 185.613281 177.085938 185.570312 177.691406 C 185.527344 178.296875 185.519531 178.90625 185.539062 179.511719 C 185.539062 187.4375 185.539062 195.363281 185.539062 203.285156 L 185.539062 205.980469 L 182.113281 205.980469 L 182.113281 158.3125 L 185.492188 158.3125 L 185.492188 168.078125 C 189.632812 160.953125 196.023438 158.3125 204.046875 158.117188 Z M 39.332031 180.574219 L 40.839844 173.089844 C 44.984375 158.292969 61.863281 152.132812 73.476562 161.300781 C 80.277344 166.664062 81.972656 174.269531 81.640625 182.835938 L 43.332031 182.835938 C 42.710938 198.136719 53.699219 207.378906 67.753906 202.660156 C 72.382812 200.964844 75.867188 197.097656 77.015625 192.289062 C 77.757812 189.886719 78.984375 189.472656 81.230469 190.167969 C 81.042969 191.632812 80.695312 193.058594 80.1875 194.445312 C 79.679688 195.832031 79.023438 197.140625 78.21875 198.378906 C 77.414062 199.613281 76.480469 200.742188 75.421875 201.765625 C 74.363281 202.789062 73.203125 203.679688 71.941406 204.441406 C 70.90625 205.007812 69.832031 205.492188 68.722656 205.890625 C 67.613281 206.289062 66.476562 206.601562 65.320312 206.820312 C 64.160156 207.039062 62.992188 207.167969 61.8125 207.203125 C 60.632812 207.238281 59.457031 207.179688 58.289062 207.03125 C 57.117188 206.878906 55.96875 206.640625 54.835938 206.308594 C 53.703125 205.976562 52.601562 205.554688 51.535156 205.050781 C 50.46875 204.542969 49.449219 203.957031 48.472656 203.289062 C 47.5 202.625 46.582031 201.882812 45.722656 201.070312 C 42.300781 197.207031 40.238281 192.320312 39.835938 187.160156 C 39.835938 186.3125 39.554688 185.523438 39.355469 184.757812 C 39.335938 183.332031 39.328125 181.9375 39.328125 180.574219 Z M 43.378906 179.539062 L 78.023438 179.539062 C 77.808594 168.445312 70.839844 160.578125 61.550781 160.503906 C 51.210938 160.363281 43.808594 168.058594 43.355469 179.492188 Z M 43.378906 179.539062 " fill-opacity="1" fill-rule="nonzero"/></g></svg>