<svg xmlns="http://www.w3.org/2000/svg" width="375" viewBox="0 0 375 375" height="375" version="1.0"><path fill="#E44B2F" d="M 330.058594 174.292969 L 200.695312 44.941406 C 193.253906 37.488281 181.167969 37.488281 173.714844 44.941406 L 146.847656 71.804688 L 180.925781 105.882812 C 188.84375 103.207031 197.929688 105 204.234375 111.3125 C 210.578125 117.667969 212.359375 126.824219 209.617188 134.769531 L 242.464844 167.617188 C 250.40625 164.875 259.570312 166.644531 265.925781 173 C 274.792969 181.863281 274.792969 196.238281 265.925781 205.105469 C 257.046875 213.980469 242.683594 213.980469 233.808594 205.105469 C 227.128906 198.425781 225.484375 188.636719 228.867188 180.417969 L 198.242188 149.785156 L 198.230469 230.382812 C 200.394531 231.457031 202.429688 232.882812 204.234375 234.675781 C 213.101562 243.542969 213.101562 257.917969 204.234375 266.792969 C 195.371094 275.660156 180.984375 275.660156 172.128906 266.792969 C 163.265625 257.917969 163.265625 243.542969 172.128906 234.675781 C 174.316406 232.488281 176.851562 230.832031 179.558594 229.722656 L 179.558594 148.375 C 176.851562 147.269531 174.328125 145.625 172.128906 143.421875 C 165.40625 136.710938 163.796875 126.851562 167.234375 118.597656 L 133.648438 85.003906 L 44.941406 173.703125 C 37.488281 181.15625 37.488281 193.242188 44.945312 200.695312 L 174.308594 330.058594 C 181.761719 337.5 193.84375 337.5 201.296875 330.058594 L 330.058594 201.296875 C 337.511719 193.84375 337.511719 181.75 330.058594 174.292969"/></svg>