<svg xmlns="http://www.w3.org/2000/svg" xmlns:xlink="http://www.w3.org/1999/xlink" width="500" zoomAndPan="magnify" viewBox="0 0 375 374.999991" height="500" preserveAspectRatio="xMidYMid meet" version="1.0"><defs><clipPath id="id1"><path d="M 47.863281 47.863281 L 326.863281 47.863281 L 326.863281 326.863281 L 47.863281 326.863281 Z M 47.863281 47.863281 " clip-rule="nonzero"/></clipPath></defs><g clip-path="url(#id1)"><path fill="#ead41c" d="M 47.863281 47.863281 L 326.863281 47.863281 L 326.863281 326.863281 L 47.863281 326.863281 Z M 47.863281 47.863281 " fill-opacity="1" fill-rule="nonzero"/></g><path fill="#6b7280" d="M 121.222656 281.015625 L 142.574219 268.097656 C 146.691406 275.402344 150.441406 281.582031 159.429688 281.582031 C 168.039062 281.582031 173.480469 278.203125 173.480469 265.101562 L 173.480469 175.953125 L 199.691406 175.953125 L 199.691406 265.472656 C 199.691406 292.621094 183.777344 304.992188 160.554688 304.992188 C 139.578125 304.992188 127.402344 294.125 121.222656 281.015625 " fill-opacity="1" fill-rule="nonzero"/><path fill="#6b7280" d="M 213.933594 278.203125 L 235.285156 265.84375 C 240.90625 275.019531 248.210938 281.765625 261.125 281.765625 C 271.988281 281.765625 278.921875 276.339844 278.921875 268.839844 C 278.921875 259.847656 271.804688 256.667969 259.816406 251.425781 L 253.265625 248.613281 C 234.347656 240.558594 221.800781 230.457031 221.800781 209.09375 C 221.800781 189.433594 236.777344 174.449219 260.199219 174.449219 C 276.863281 174.449219 288.851562 180.257812 297.460938 195.429688 L 277.046875 208.539062 C 272.558594 200.484375 267.683594 197.304688 260.199219 197.304688 C 252.515625 197.304688 247.644531 202.175781 247.644531 208.539062 C 247.644531 216.40625 252.515625 219.589844 263.75 224.460938 L 270.300781 227.261719 C 292.589844 236.820312 305.144531 246.554688 305.144531 268.46875 C 305.144531 292.066406 286.605469 304.992188 261.691406 304.992188 C 237.34375 304.992188 221.617188 293.371094 213.933594 278.203125 " fill-opacity="1" fill-rule="nonzero"/></svg>