<svg xmlns="http://www.w3.org/2000/svg" width="375" viewBox="0 0 375 375" height="375" version="1.0"><defs><clipPath id="a"><path d="M 42 48 L 337.5 48 L 337.5 337 L 42 337 Z M 42 48"/></clipPath></defs><g clip-path="url(#a)"><path fill="#006388" d="M 314.21875 271.625 C 298.15625 271.175781 285.691406 272.824219 275.246094 277.21875 C 272.238281 278.425781 267.410156 278.425781 267.015625 282.210938 C 268.621094 283.800781 268.816406 286.398438 270.222656 288.601562 C 272.632812 292.597656 276.855469 297.980469 280.671875 300.773438 L 293.527344 309.960938 C 301.359375 314.746094 310.199219 317.542969 317.832031 322.335938 C 322.253906 325.132812 326.667969 328.726562 331.089844 331.722656 C 333.34375 333.320312 334.707031 335.921875 337.519531 336.914062 L 337.519531 336.3125 C 336.117188 334.519531 335.710938 331.925781 334.3125 329.921875 L 328.277344 324.136719 C 322.457031 316.347656 315.21875 309.554688 307.386719 303.972656 C 300.957031 299.578125 286.898438 293.589844 284.285156 286.207031 L 283.890625 285.757812 C 288.300781 285.3125 293.527344 283.757812 297.75 282.558594 C 304.585938 280.769531 310.808594 281.164062 317.832031 279.371094 L 327.480469 276.574219 L 327.480469 274.78125 C 323.863281 271.191406 321.253906 266.398438 317.4375 263.003906 C 307.195312 254.222656 295.9375 245.632812 284.285156 238.449219 C 278.058594 234.457031 270.023438 231.855469 263.394531 228.46875 C 260.976562 227.269531 256.964844 226.671875 255.558594 224.675781 C 251.933594 220.289062 249.929688 214.496094 247.320312 209.300781 L 230.847656 174.5625 C 227.234375 166.777344 225.019531 158.992188 220.605469 151.804688 C 199.910156 117.863281 177.40625 97.300781 142.851562 77.132812 C 135.425781 72.941406 126.585938 71.136719 117.1875 68.945312 L 102.121094 68.140625 C 98.902344 66.742188 95.691406 62.949219 92.878906 61.152344 C 81.429688 53.964844 51.894531 38.390625 43.453125 58.914062 C 38.027344 71.890625 51.488281 84.664062 56.058594 91.257812 C 59.480469 95.847656 63.894531 101.039062 66.3125 106.230469 C 67.664062 109.621094 68.113281 113.21875 69.523438 116.8125 C 72.734375 125.59375 75.75 135.382812 79.96875 143.570312 C 82.222656 147.761719 84.585938 152.164062 87.398438 155.953125 C 89.007812 158.191406 91.820312 159.148438 92.417969 162.742188 C 89.605469 166.734375 89.410156 172.71875 87.804688 177.71875 C 80.566406 200.277344 83.382812 228.226562 93.625 244.839844 C 96.84375 249.828125 104.433594 260.8125 114.726562 256.617188 C 123.765625 253.023438 121.75 241.644531 124.359375 231.660156 C 124.96875 229.265625 124.5625 227.667969 125.765625 226.066406 L 125.765625 226.515625 L 134.003906 243.085938 C 140.234375 252.867188 151.085938 263.050781 160.121094 269.84375 C 164.9375 273.4375 168.757812 279.628906 174.78125 281.820312 L 174.78125 281.21875 L 174.386719 281.21875 C 173.179688 279.429688 171.367188 278.621094 169.761719 277.226562 C 166.144531 273.632812 162.128906 269.238281 159.316406 265.246094 C 150.882812 254.070312 143.453125 241.6875 136.820312 228.914062 C 133.601562 222.722656 130.785156 215.9375 128.183594 209.746094 C 126.96875 207.347656 126.96875 203.75 124.964844 202.5625 C 121.949219 206.945312 117.535156 210.75 115.316406 216.136719 C 111.496094 224.71875 111.101562 235.300781 109.695312 246.285156 C 108.886719 246.484375 109.246094 246.285156 108.886719 246.730469 C 102.464844 245.136719 100.25 238.542969 97.839844 232.957031 C 91.816406 218.78125 90.808594 196.023438 96.03125 179.648438 C 97.433594 175.457031 103.46875 162.28125 101.058594 158.289062 C 99.84375 154.492188 95.835938 152.300781 93.621094 149.300781 C 91.011719 145.507812 88.203125 140.71875 86.394531 136.527344 C 81.578125 125.339844 79.167969 112.96875 73.941406 101.785156 C 71.523438 96.59375 67.308594 91.203125 63.890625 86.414062 C 60.074219 81.023438 55.863281 77.226562 52.84375 70.84375 C 51.839844 68.605469 50.4375 65.050781 52.042969 62.652344 C 52.441406 61.054688 53.25 60.417969 54.847656 60.058594 C 57.460938 57.820312 64.898438 60.660156 67.511719 61.847656 C 74.941406 64.847656 81.167969 67.640625 87.394531 71.828125 C 90.207031 73.824219 93.226562 77.617188 96.839844 78.621094 L 101.066406 78.621094 C 107.496094 80.015625 114.722656 79.066406 120.742188 80.855469 C 131.390625 84.257812 141.03125 89.242188 149.675781 94.640625 C 175.988281 111.210938 197.691406 134.769531 212.351562 162.921875 C 214.761719 167.515625 215.765625 171.707031 217.980469 176.5 C 222.203125 186.285156 227.425781 196.265625 231.636719 205.855469 C 235.859375 215.238281 239.875 224.828125 245.902344 232.613281 C 248.917969 236.804688 260.96875 239 266.386719 241.195312 C 270.410156 242.984375 276.632812 244.597656 280.257812 246.789062 C 287.082031 250.980469 293.914062 255.773438 300.339844 260.367188 C 303.550781 262.753906 313.597656 267.75 314.199219 271.730469 Z M 109.347656 98.128906 C 106.5625 98.105469 103.816406 98.4375 101.117188 99.128906 L 101.117188 99.574219 L 101.515625 99.574219 C 103.121094 102.769531 105.9375 104.96875 107.945312 107.765625 L 112.570312 117.347656 L 112.964844 116.902344 C 115.777344 114.90625 117.1875 111.710938 117.1875 106.921875 C 115.980469 105.527344 115.785156 104.125 114.777344 102.730469 C 113.574219 100.734375 110.960938 99.730469 109.347656 98.136719 Z M 109.347656 98.128906" fill-rule="evenodd"/></g></svg>