<svg xmlns="http://www.w3.org/2000/svg" xmlns:xlink="http://www.w3.org/1999/xlink" width="500" zoomAndPan="magnify" viewBox="0 0 375 374.999991" height="500" preserveAspectRatio="xMidYMid meet" version="1.0"><defs><clipPath id="1802363c97"><path d="M 41.863281 304 L 93 304 L 93 332 L 41.863281 332 Z M 41.863281 304 " clip-rule="nonzero"/></clipPath><clipPath id="dc067350ae"><path d="M 64 222 L 168 222 L 168 337.5 L 64 337.5 Z M 64 222 " clip-rule="nonzero"/></clipPath></defs><g clip-path="url(#1802363c97)"><path fill="#f15a24" d="M 92.726562 329.4375 L 41.863281 331.199219 L 67.9375 304.660156 Z M 92.726562 329.4375 " fill-opacity="1" fill-rule="nonzero"/></g><path fill="#f15a24" d="M 323.441406 197.828125 C 313.996094 271.570312 246.601562 323.679688 172.929688 314.203125 C 99.253906 304.75 47.207031 237.296875 56.652344 163.554688 C 66.105469 89.808594 133.484375 37.703125 207.171875 47.167969 C 280.847656 56.628906 332.90625 124.089844 323.441406 197.828125 " fill-opacity="1" fill-rule="nonzero"/><path fill="#999999" d="M 224.339844 142.421875 C 233.175781 151.824219 224.460938 174.058594 224.460938 174.058594 C 224.460938 174.058594 215.832031 205.488281 166.480469 246.253906 L 157.257812 237.207031 L 219.925781 173.109375 L 221.132812 171.46875 C 222.800781 168.746094 224.171875 142.238281 224.339844 142.421875 " fill-opacity="1" fill-rule="nonzero"/><path stroke-linecap="round" transform="matrix(1.106043, 0, 0, 1.107068, 41.863636, 45.518551)" fill="none" stroke-linejoin="round" d="M 164.981079 87.531533 C 172.969861 96.024549 165.090563 116.108576 165.090563 116.108576 C 165.090563 116.108576 157.288964 144.49861 112.669042 181.321677 L 104.330619 173.149751 L 160.990221 115.251159 L 162.081526 113.769203 C 163.589576 111.309862 164.829215 87.365695 164.981079 87.531533 Z M 164.981079 87.531533 " stroke="#ffffff" stroke-width="1.918" stroke-opacity="1" stroke-miterlimit="4"/><path stroke-linecap="round" transform="matrix(1.106043, 0, 0, 1.107068, 41.863636, 45.518551)" fill-opacity="1" fill="#666666" fill-rule="nonzero" stroke-linejoin="round" d="M 92.100226 161.110626 L 164.861001 87.323353 C 168.558726 91.709236 169.339239 96.433851 168.269123 103.169692 C 167.54865 107.830795 159.489234 117.149473 159.489234 117.149473 L 104.330619 173.149751 " stroke="#ffffff" stroke-width="1.201" stroke-opacity="1" stroke-miterlimit="4"/><path fill="#ff931e" d="M 224.339844 142.480469 L 143.730469 223.878906 L 143.890625 223.722656 L 143.863281 223.734375 L 123.859375 204.007812 C 165.5625 152.078125 192.527344 142.398438 192.527344 142.398438 C 192.527344 142.398438 210.09375 135.539062 222.613281 140.863281 C 223.574219 141.378906 223.996094 141.675781 224.339844 142.480469 " fill-opacity="1" fill-rule="nonzero"/><path stroke-linecap="round" transform="matrix(1.106043, 0, 0, 1.107068, 41.863636, 45.518551)" fill="none" stroke-linejoin="round" d="M 164.981079 87.58446 L 92.100226 161.110626 L 92.245027 160.969488 L 92.220305 160.980073 L 74.134298 143.161322 C 111.839085 96.2539 136.218642 87.510362 136.218642 87.510362 C 136.218642 87.510362 152.100847 81.314376 163.420053 86.123675 C 164.28886 86.589432 164.670287 86.857596 164.981079 87.58446 Z M 164.981079 87.58446 " stroke="#ffffff" stroke-width="1.918" stroke-opacity="1" stroke-miterlimit="4"/><path fill="#999999" d="M 166.480469 246.253906 C 147.242188 262.105469 122.632812 287.015625 89.175781 304.382812 L 96.617188 336.222656 L 65.078125 305.125 L 143.726562 223.878906 " fill-opacity="1" fill-rule="nonzero"/><g clip-path="url(#dc067350ae)"><path stroke-linecap="round" transform="matrix(1.106043, 0, 0, 1.107068, 41.863636, 45.518551)" fill="none" stroke-linejoin="round" d="M 112.669042 181.321677 C 95.275255 195.640191 73.025333 218.141216 42.776036 233.828774 L 49.503988 262.589298 L 20.988772 234.499183 L 92.096695 161.110626 " stroke="#ffffff" stroke-width="1.918" stroke-opacity="1" stroke-miterlimit="4"/></g><path stroke-linecap="round" transform="matrix(1.106043, 0, 0, 1.107068, 41.863636, 45.518551)" fill-opacity="1" fill="#f15a24" fill-rule="nonzero" stroke-linejoin="round" d="M 74.621677 143.401257 L 92.287408 161.001244 L 51.478227 169.84005 L 74.233186 143.080167 L 74.625209 143.401257 Z M 74.621677 143.401257 " stroke="#ffffff" stroke-width="1.918" stroke-opacity="1" stroke-miterlimit="4"/><path fill="#999999" d="M 216.640625 118.855469 C 214.726562 136.171875 227.179688 151.761719 244.480469 153.691406 C 261.765625 155.613281 277.351562 143.136719 279.285156 125.828125 C 281.210938 108.519531 268.734375 92.914062 251.4375 90.992188 C 234.136719 89.078125 218.566406 101.539062 216.640625 118.855469 " fill-opacity="1" fill-rule="nonzero"/><path stroke-linecap="round" transform="matrix(1.106043, 0, 0, 1.107068, 41.863636, 45.518551)" fill="none" stroke-linejoin="round" d="M 158.020033 66.244299 C 156.289483 81.885988 167.54865 95.968094 183.190698 97.711156 C 198.818618 99.447161 212.910235 88.177242 214.658443 72.542611 C 216.399588 56.907979 205.119231 42.811759 189.480715 41.075754 C 173.838667 39.346806 159.761177 50.602611 158.020033 66.244299 Z M 158.020033 66.244299 " stroke="#ffffff" stroke-width="1.918" stroke-opacity="1" stroke-miterlimit="4"/><path fill="#666666" d="M 274.761719 139.773438 C 280.570312 131.269531 280.269531 118.554688 279.097656 114.785156 C 277.671875 110.171875 274.464844 102.667969 268.878906 98.769531 L 239.335938 126.007812 C 239.335938 126.007812 262.042969 150.429688 262.628906 150.511719 C 262.875 150.539062 269.453125 147.523438 274.761719 139.773438 " fill-opacity="1" fill-rule="nonzero"/><path stroke-linecap="round" transform="matrix(1.106043, 0, 0, 1.107068, 41.863636, 45.518551)" fill="none" stroke-linejoin="round" d="M 210.568696 85.139233 C 215.820384 77.457763 215.54844 65.972608 214.48892 62.567638 C 213.199837 58.40052 210.300284 51.622338 205.249905 48.100929 L 178.539405 72.70492 C 178.539405 72.70492 199.069372 94.764887 199.599132 94.838985 C 199.821631 94.863684 205.76907 92.139709 210.568696 85.139233 Z M 205.179271 65.863225 C 205.179271 65.863225 207.739777 72.168593 204.490583 77.076689 Z M 205.179271 65.863225 " stroke="#ffffff" stroke-width="1.918" stroke-opacity="1" stroke-miterlimit="4"/><path fill="#666666" d="M 157.953125 237.21875 L 125.351562 243.019531 L 145.03125 222.550781 " fill-opacity="1" fill-rule="nonzero"/><path stroke-linecap="round" transform="matrix(1.106043, 0, 0, 1.107068, 41.863636, 45.518551)" fill="none" stroke-linejoin="round" d="M 104.959268 173.160336 L 75.48342 178.400108 L 93.276294 159.910948 M 75.306833 143.528282 L 112.789121 178.798825 " stroke="#ffffff" stroke-width="1.918" stroke-opacity="1" stroke-miterlimit="4"/></svg>