<svg xmlns="http://www.w3.org/2000/svg" xmlns:xlink="http://www.w3.org/1999/xlink" width="500" zoomAndPan="magnify" viewBox="0 0 375 374.999991" height="500" preserveAspectRatio="xMidYMid meet" version="1.0"><defs><clipPath id="22dd447f50"><path d="M 37.5 54 L 337.5 54 L 337.5 321 L 37.5 321 Z M 37.5 54 " clip-rule="nonzero"/></clipPath></defs><g clip-path="url(#22dd447f50)"><path fill="#00d8ff" d="M 283.957031 140.585938 C 280.859375 139.519531 277.640625 138.507812 274.320312 137.550781 C 274.871094 135.328125 275.371094 133.136719 275.816406 130.980469 C 283.101562 95.585938 278.34375 67.070312 262.054688 57.679688 C 246.429688 48.679688 220.886719 58.066406 195.089844 80.503906 C 192.609375 82.664062 190.121094 84.945312 187.640625 87.339844 C 185.980469 85.757812 184.332031 84.226562 182.683594 82.761719 C 155.644531 58.769531 128.542969 48.65625 112.273438 58.070312 C 96.667969 67.101562 92.046875 93.90625 98.617188 127.453125 C 99.25 130.691406 99.992188 134 100.828125 137.367188 C 96.992188 138.453125 93.289062 139.613281 89.75 140.847656 C 58.050781 151.894531 37.808594 169.203125 37.808594 187.164062 C 37.808594 205.703125 59.539062 224.3125 92.554688 235.589844 C 95.160156 236.480469 97.863281 237.320312 100.648438 238.117188 C 99.742188 241.75 98.957031 245.316406 98.296875 248.800781 C 92.035156 281.761719 96.925781 307.933594 112.488281 316.902344 C 128.5625 326.171875 155.539062 316.644531 181.804688 293.699219 C 183.886719 291.886719 185.96875 289.957031 188.050781 287.945312 C 190.761719 290.542969 193.464844 293.007812 196.140625 295.324219 C 221.589844 317.203125 246.722656 326.042969 262.261719 317.050781 C 278.320312 307.757812 283.546875 279.636719 276.765625 245.433594 C 276.25 242.816406 275.640625 240.148438 274.976562 237.4375 C 276.871094 236.875 278.730469 236.292969 280.542969 235.695312 C 314.867188 224.324219 337.191406 205.960938 337.191406 187.164062 C 337.191406 169.140625 316.292969 151.710938 283.957031 140.585938 Z M 276.519531 223.5625 C 274.882812 224.101562 273.199219 224.625 271.492188 225.128906 C 267.703125 213.148438 262.589844 200.394531 256.324219 187.222656 C 262.296875 174.363281 267.210938 161.777344 270.894531 149.867188 C 273.957031 150.753906 276.929688 151.6875 279.792969 152.671875 C 307.496094 162.207031 324.398438 176.304688 324.398438 187.164062 C 324.398438 198.722656 306.152344 213.742188 276.519531 223.5625 Z M 264.214844 247.910156 C 267.222656 263.039062 267.644531 276.714844 265.65625 287.410156 C 263.878906 297.015625 260.285156 303.421875 255.855469 305.984375 C 246.417969 311.441406 226.242188 304.347656 204.492188 285.632812 C 201.988281 283.480469 199.476562 281.191406 196.960938 278.769531 C 205.394531 269.546875 213.824219 258.828125 222.058594 246.917969 C 236.523438 245.644531 250.195312 243.539062 262.601562 240.675781 C 263.210938 243.140625 263.75 245.550781 264.214844 247.910156 Z M 139.878906 305.035156 C 130.660156 308.296875 123.320312 308.390625 118.882812 305.832031 C 109.4375 300.382812 105.511719 279.367188 110.867188 251.183594 C 111.480469 247.957031 112.210938 244.636719 113.054688 241.25 C 125.316406 243.960938 138.890625 245.914062 153.398438 247.082031 C 161.683594 258.734375 170.359375 269.441406 179.097656 278.816406 C 177.191406 280.664062 175.285156 282.417969 173.390625 284.066406 C 161.777344 294.222656 150.136719 301.425781 139.878906 305.035156 Z M 96.695312 223.492188 C 82.097656 218.5 70.039062 212.027344 61.777344 204.941406 C 54.351562 198.59375 50.601562 192.28125 50.601562 187.164062 C 50.601562 176.269531 66.855469 162.367188 93.960938 152.917969 C 97.25 151.773438 100.695312 150.691406 104.265625 149.679688 C 108.015625 161.859375 112.929688 174.597656 118.859375 187.46875 C 112.851562 200.535156 107.867188 213.476562 104.082031 225.808594 C 101.535156 225.070312 99.070312 224.300781 96.695312 223.492188 Z M 111.171875 124.996094 C 105.542969 96.257812 109.28125 74.578125 118.683594 69.136719 C 128.699219 63.339844 150.847656 71.601562 174.183594 92.320312 C 175.679688 93.644531 177.179688 95.03125 178.6875 96.464844 C 169.984375 105.800781 161.390625 116.429688 153.179688 128.011719 C 139.097656 129.316406 125.621094 131.410156 113.230469 134.21875 C 112.449219 131.085938 111.761719 128.007812 111.171875 124.996094 Z M 240.300781 156.871094 C 237.34375 151.757812 234.304688 146.761719 231.203125 141.90625 C 240.757812 143.113281 249.902344 144.714844 258.5 146.675781 C 255.925781 154.941406 252.710938 163.582031 248.921875 172.445312 C 246.207031 167.289062 243.332031 162.09375 240.300781 156.871094 Z M 187.640625 105.601562 C 193.546875 111.988281 199.453125 119.121094 205.265625 126.859375 C 199.40625 126.582031 193.476562 126.4375 187.5 126.4375 C 181.582031 126.4375 175.703125 126.578125 169.878906 126.851562 C 175.691406 119.183594 181.652344 112.0625 187.640625 105.601562 Z M 134.644531 156.960938 C 131.683594 162.085938 128.867188 167.253906 126.191406 172.433594 C 122.46875 163.605469 119.28125 154.921875 116.679688 146.539062 C 125.222656 144.628906 134.332031 143.066406 143.820312 141.882812 C 140.675781 146.785156 137.609375 151.816406 134.644531 156.957031 Z M 144.09375 233.347656 C 134.289062 232.257812 125.042969 230.773438 116.503906 228.917969 C 119.148438 220.382812 122.402344 211.523438 126.207031 202.5 C 128.886719 207.675781 131.71875 212.84375 134.695312 217.988281 C 137.726562 223.222656 140.871094 228.34375 144.09375 233.347656 Z M 187.992188 269.617188 C 181.933594 263.082031 175.886719 255.847656 169.984375 248.074219 C 175.714844 248.296875 181.558594 248.414062 187.5 248.414062 C 193.605469 248.414062 199.640625 248.273438 205.570312 248.015625 C 199.746094 255.929688 193.851562 263.175781 187.992188 269.617188 Z M 249.039062 202.042969 C 253.039062 211.160156 256.417969 219.972656 259.09375 228.367188 C 250.417969 230.34375 241.039062 231.933594 231.167969 233.125 C 234.28125 228.203125 237.34375 223.117188 240.359375 217.894531 C 243.414062 212.609375 246.300781 207.316406 249.039062 202.042969 Z M 229.273438 211.511719 C 224.597656 219.625 219.789062 227.363281 214.914062 234.667969 C 206.035156 235.296875 196.855469 235.625 187.5 235.625 C 178.179688 235.625 169.117188 235.34375 160.394531 234.773438 C 155.316406 227.375 150.410156 219.613281 145.761719 211.582031 C 141.125 203.574219 136.855469 195.496094 132.988281 187.46875 C 136.855469 179.425781 141.113281 171.335938 145.726562 163.34375 L 145.722656 163.34375 C 150.347656 155.332031 155.210938 147.605469 160.242188 140.246094 C 169.140625 139.574219 178.273438 139.222656 187.5 139.222656 C 196.773438 139.222656 205.910156 139.578125 214.808594 140.253906 C 219.765625 147.558594 224.597656 155.261719 229.238281 163.277344 C 233.929688 171.382812 238.242188 179.414062 242.136719 187.292969 C 238.253906 195.296875 233.953125 203.410156 229.273438 211.511719 Z M 255.65625 68.753906 C 265.691406 74.53125 269.585938 97.835938 263.28125 128.398438 C 262.882812 130.347656 262.429688 132.332031 261.9375 134.34375 C 249.515625 131.480469 236.035156 129.351562 221.917969 128.023438 C 213.683594 116.316406 205.160156 105.671875 196.597656 96.457031 C 198.902344 94.242188 201.207031 92.132812 203.488281 90.144531 C 225.589844 70.917969 246.253906 63.328125 255.65625 68.753906 Z M 187.5 160.4375 C 202.257812 160.4375 214.234375 172.394531 214.234375 187.160156 C 214.234375 201.910156 202.257812 213.878906 187.5 213.878906 C 172.742188 213.878906 160.765625 201.910156 160.765625 187.160156 C 160.765625 172.394531 172.742188 160.4375 187.5 160.4375 Z M 187.5 160.4375 " fill-opacity="1" fill-rule="nonzero"/></g></svg>