<svg xmlns="http://www.w3.org/2000/svg" width="375" viewBox="0 0 375 375" height="375" version="1.0"><defs><clipPath id="a"><path d="M 37.5 75 L 337.5 75 L 337.5 299.863281 L 37.5 299.863281 Z M 37.5 75"/></clipPath></defs><g clip-path="url(#a)"><path fill="#C45F92" d="M 295.664062 204.101562 C 285.175781 204.160156 276.09375 206.675781 268.476562 210.421875 C 265.664062 204.863281 262.851562 200.003906 262.382812 196.378906 C 261.855469 192.164062 261.210938 189.589844 261.855469 184.554688 C 262.5 179.523438 265.429688 172.382812 265.429688 171.796875 C 265.371094 171.269531 264.785156 168.695312 258.75 168.636719 C 252.714844 168.578125 247.5 169.808594 246.914062 171.386719 C 246.328125 172.96875 245.15625 176.59375 244.394531 180.339844 C 243.339844 185.84375 232.324219 205.332031 226.054688 215.574219 C 224.003906 211.59375 222.246094 208.082031 221.894531 205.273438 C 221.367188 201.058594 220.722656 198.484375 221.367188 193.449219 C 222.011719 188.417969 224.941406 181.277344 224.941406 180.691406 C 224.882812 180.164062 224.296875 177.589844 218.261719 177.53125 C 212.226562 177.472656 207.011719 178.703125 206.425781 180.28125 C 205.839844 181.863281 205.195312 185.609375 203.90625 189.238281 C 202.675781 192.867188 188.027344 225.40625 184.21875 233.890625 C 182.285156 238.222656 180.585938 241.675781 179.355469 244.015625 C 178.125 246.355469 179.296875 244.191406 179.179688 244.425781 C 178.125 246.414062 177.539062 247.527344 177.539062 247.527344 L 177.539062 247.585938 C 176.71875 249.046875 175.839844 250.453125 175.429688 250.453125 C 175.136719 250.453125 174.550781 246.53125 175.546875 241.148438 C 177.714844 229.851562 182.988281 212.238281 182.929688 211.59375 C 182.929688 211.300781 183.925781 208.199219 179.53125 206.617188 C 175.253906 205.039062 173.730469 207.671875 173.378906 207.671875 C 173.027344 207.671875 172.734375 208.609375 172.734375 208.609375 C 172.734375 208.609375 177.480469 188.769531 163.652344 188.769531 C 154.980469 188.769531 143.027344 198.191406 137.109375 206.796875 C 133.359375 208.84375 125.390625 213.171875 116.953125 217.796875 C 113.730469 219.554688 110.390625 221.425781 107.226562 223.125 L 106.582031 222.417969 C 89.824219 204.570312 58.828125 191.929688 60.117188 167.933594 C 60.585938 159.214844 63.632812 136.214844 119.648438 108.355469 C 165.527344 85.53125 202.265625 91.796875 208.652344 105.722656 C 217.734375 125.621094 189.023438 162.609375 141.328125 167.933594 C 123.164062 169.984375 113.613281 162.960938 111.210938 160.324219 C 108.691406 157.574219 108.339844 157.457031 107.402344 157.984375 C 105.878906 158.804688 106.816406 161.261719 107.402344 162.726562 C 108.808594 166.414062 114.667969 172.96875 124.628906 176.246094 C 133.359375 179.113281 154.6875 180.691406 180.46875 170.742188 C 209.355469 159.566406 231.914062 128.546875 225.292969 102.621094 C 218.554688 76.226562 174.726562 67.566406 133.300781 82.253906 C 108.632812 91.035156 81.914062 104.730469 62.695312 122.695312 C 39.84375 143.996094 36.210938 162.609375 37.734375 170.332031 C 43.066406 197.898438 81.09375 215.863281 96.328125 229.148438 C 95.566406 229.558594 94.863281 229.96875 94.21875 230.320312 C 86.601562 234.066406 57.597656 249.222656 50.332031 265.257812 C 42.128906 283.402344 51.621094 296.453125 57.949219 298.207031 C 77.519531 303.652344 97.558594 293.878906 108.398438 277.78125 C 119.179688 261.6875 117.890625 240.796875 112.910156 231.257812 L 112.734375 230.90625 L 118.710938 227.394531 C 122.578125 225.113281 126.386719 223.003906 129.726562 221.191406 C 127.851562 226.28125 126.503906 232.308594 125.800781 241.089844 C 124.980469 251.390625 129.199219 264.730469 134.765625 270 C 137.226562 272.28125 140.15625 272.339844 141.972656 272.339844 C 148.417969 272.339844 151.347656 267.011719 154.570312 260.636719 C 158.554688 252.851562 162.070312 243.839844 162.070312 243.839844 C 162.070312 243.839844 157.675781 268.242188 169.6875 268.242188 C 174.082031 268.242188 178.476562 262.566406 180.46875 259.640625 L 180.46875 259.699219 C 180.46875 259.699219 180.585938 259.523438 180.820312 259.113281 C 181.066406 258.75 181.300781 258.378906 181.523438 258.003906 L 181.523438 257.886719 C 183.28125 254.84375 187.207031 247.878906 193.066406 236.347656 C 200.625 221.484375 207.890625 202.871094 207.890625 202.871094 C 207.890625 202.871094 208.59375 207.4375 210.761719 214.929688 C 212.050781 219.378906 214.863281 224.234375 217.03125 228.972656 C 215.273438 231.433594 214.21875 232.835938 214.21875 232.835938 L 214.277344 232.894531 C 212.871094 234.769531 211.289062 236.757812 209.648438 238.75 C 203.671875 245.886719 196.523438 254.023438 195.585938 256.363281 C 194.472656 259.113281 194.707031 261.164062 196.875 262.800781 C 198.457031 263.972656 201.269531 264.207031 204.257812 263.972656 C 209.648438 263.621094 213.398438 262.277344 215.273438 261.457031 C 218.203125 260.402344 221.542969 258.820312 224.765625 256.480469 C 230.625 252.152344 234.199219 246.007812 233.847656 237.8125 C 233.671875 233.304688 232.207031 228.859375 230.390625 224.644531 C 230.917969 223.882812 231.445312 223.121094 231.972656 222.304688 C 241.230469 208.785156 248.378906 193.917969 248.378906 193.917969 C 248.378906 193.917969 249.082031 198.484375 251.25 205.976562 C 252.363281 209.78125 254.589844 213.9375 256.582031 218.03125 C 247.910156 225.113281 242.460938 233.308594 240.585938 238.691406 C 237.128906 248.640625 239.824219 253.144531 244.921875 254.199219 C 247.207031 254.667969 250.488281 253.613281 252.949219 252.5625 C 255.996094 251.566406 259.6875 249.867188 263.085938 247.351562 C 268.945312 243.023438 274.570312 236.992188 274.277344 228.859375 C 274.101562 225.113281 273.105469 221.425781 271.757812 217.914062 C 279.140625 214.871094 288.691406 213.117188 300.820312 214.578125 C 326.894531 217.621094 332.050781 233.890625 331.054688 240.679688 C 330.058594 247.46875 324.609375 251.214844 322.792969 252.386719 C 320.976562 253.496094 320.390625 253.90625 320.566406 254.726562 C 320.800781 255.957031 321.621094 255.898438 323.203125 255.664062 C 325.371094 255.3125 336.914062 250.105469 337.382812 237.582031 C 338.085938 221.484375 322.792969 203.925781 295.664062 204.101562 Z M 94.570312 271.8125 C 85.957031 281.234375 73.828125 284.804688 68.671875 281.761719 C 63.105469 278.542969 65.273438 264.671875 75.878906 254.667969 C 82.324219 248.578125 90.703125 242.960938 96.210938 239.507812 C 97.441406 238.746094 99.316406 237.636719 101.542969 236.289062 C 101.894531 236.054688 102.128906 235.9375 102.128906 235.9375 C 102.539062 235.703125 103.007812 235.410156 103.476562 235.121094 C 107.402344 249.398438 103.652344 261.921875 94.570312 271.8125 Z M 157.558594 229.03125 C 154.570312 236.347656 148.242188 255.132812 144.433594 254.082031 C 141.152344 253.203125 139.160156 238.980469 143.789062 224.9375 C 146.132812 217.855469 151.113281 209.425781 154.042969 206.148438 C 158.789062 200.882812 163.945312 199.125 165.234375 201.292969 C 166.757812 204.101562 159.433594 224.46875 157.558594 229.03125 Z M 209.53125 253.847656 C 208.242188 254.492188 207.070312 254.957031 206.542969 254.609375 C 206.132812 254.375 207.070312 253.496094 207.070312 253.496094 C 207.070312 253.496094 213.574219 246.53125 216.152344 243.3125 C 217.617188 241.441406 219.375 239.277344 221.25 236.816406 L 221.25 237.519531 C 221.25 245.945312 213.164062 251.566406 209.53125 253.847656 Z M 249.609375 244.71875 C 248.671875 244.015625 248.789062 241.847656 251.953125 235.0625 C 253.183594 232.367188 255.996094 227.863281 260.859375 223.589844 C 261.445312 225.347656 261.796875 227.042969 261.738281 228.625 C 261.679688 239.15625 254.179688 243.078125 249.609375 244.71875 Z M 249.609375 244.71875"/></g></svg>