<svg xmlns="http://www.w3.org/2000/svg" xmlns:xlink="http://www.w3.org/1999/xlink" width="500" zoomAndPan="magnify" viewBox="0 0 375 374.999991" height="500" preserveAspectRatio="xMidYMid meet" version="1.0"><defs><clipPath id="id1"><path d="M 37.5 97 L 337.5 97 L 337.5 278 L 37.5 278 Z M 37.5 97 " clip-rule="nonzero"/></clipPath></defs><g clip-path="url(#id1)"><path fill="#44a8b3" d="M 112.5 157.5 C 122.5 117.5 147.5 97.5 187.5 97.5 C 247.5 97.5 255 142.5 285 150 C 305 155 322.5 147.5 337.5 127.5 C 327.5 167.5 302.5 187.5 262.5 187.5 C 202.5 187.5 195 142.5 165 135 C 145 130 127.5 137.5 112.5 157.5 Z M 37.5 247.5 C 47.5 207.5 72.5 187.5 112.5 187.5 C 172.5 187.5 180 232.5 210 240 C 230 245 247.5 237.5 262.5 217.5 C 252.5 257.5 227.5 277.5 187.5 277.5 C 127.5 277.5 120 232.5 90 225 C 70 220 52.5 227.5 37.5 247.5 Z M 37.5 247.5 " fill-opacity="1" fill-rule="nonzero"/></g></svg>