<svg xmlns="http://www.w3.org/2000/svg" width="375" viewBox="0 0 375 375" height="375" version="1.0"><defs><clipPath id="a"><path d="M 37.5 37.5 L 337.5 37.5 L 337.5 337.5 L 37.5 337.5 Z M 37.5 37.5"/></clipPath></defs><g clip-path="url(#a)"><path fill="#0174C1" d="M 37.5 70.832031 L 37.5 304.167969 C 37.5 322.582031 52.417969 337.5 70.832031 337.5 L 304.167969 337.5 C 322.582031 337.5 337.5 322.582031 337.5 304.167969 L 337.5 70.832031 C 337.5 52.417969 322.582031 37.5 304.167969 37.5 L 70.832031 37.5 C 52.417969 37.5 37.5 52.417969 37.5 70.832031 Z M 215.265625 195.015625 L 179.964844 195.015625 L 179.964844 304.167969 L 151.515625 304.167969 L 151.515625 195.015625 L 116.949219 195.015625 L 116.949219 170.832031 L 215.265625 170.832031 Z M 220.800781 297.933594 L 220.800781 268.75 C 220.800781 268.75 236.734375 280.765625 255.867188 280.765625 C 275 280.765625 274.25 268.265625 274.25 266.550781 C 274.25 248.398438 220.066406 248.398438 220.066406 208.199219 C 220.066406 153.515625 299.015625 175.101562 299.015625 175.101562 L 298.035156 201.082031 C 298.035156 201.082031 284.800781 192.25 269.832031 192.25 C 254.882812 192.25 249.484375 199.367188 249.484375 206.964844 C 249.484375 226.582031 304.167969 224.617188 304.167969 264.101562 C 304.167969 324.898438 220.800781 297.933594 220.800781 297.933594 Z M 220.800781 297.933594"/></g></svg>